G75*
%MOIN*%
%OFA0B0*%
%FSLAX25Y25*%
%IPPOS*%
%LPD*%
%AMOC8*
5,1,8,0,0,1.08239X$1,22.5*
%
%ADD10C,0.00000*%
%ADD11OC8,0.13200*%
%ADD12C,0.13200*%
%ADD13R,0.07099X0.07887*%
%ADD14R,0.07887X0.07099*%
%ADD15C,0.06400*%
%ADD16C,0.07887*%
%ADD17OC8,0.09300*%
%ADD18C,0.06107*%
%ADD19OC8,0.09461*%
%ADD20OC8,0.10850*%
%ADD21C,0.06000*%
%ADD22R,0.07898X0.07099*%
%ADD23R,0.05950X0.05950*%
%ADD24C,0.05950*%
%ADD25C,0.13398*%
%ADD26R,0.07099X0.07898*%
%ADD27C,0.04762*%
D10*
X0001000Y0001000D02*
X0001000Y0244591D01*
X0616921Y0244591D01*
X0616921Y0001000D01*
X0001000Y0001000D01*
X0198701Y0037000D02*
X0198703Y0037158D01*
X0198709Y0037316D01*
X0198719Y0037474D01*
X0198733Y0037632D01*
X0198751Y0037789D01*
X0198772Y0037946D01*
X0198798Y0038102D01*
X0198828Y0038258D01*
X0198861Y0038413D01*
X0198899Y0038566D01*
X0198940Y0038719D01*
X0198985Y0038871D01*
X0199034Y0039022D01*
X0199087Y0039171D01*
X0199143Y0039319D01*
X0199203Y0039465D01*
X0199267Y0039610D01*
X0199335Y0039753D01*
X0199406Y0039895D01*
X0199480Y0040035D01*
X0199558Y0040172D01*
X0199640Y0040308D01*
X0199724Y0040442D01*
X0199813Y0040573D01*
X0199904Y0040702D01*
X0199999Y0040829D01*
X0200096Y0040954D01*
X0200197Y0041076D01*
X0200301Y0041195D01*
X0200408Y0041312D01*
X0200518Y0041426D01*
X0200631Y0041537D01*
X0200746Y0041646D01*
X0200864Y0041751D01*
X0200985Y0041853D01*
X0201108Y0041953D01*
X0201234Y0042049D01*
X0201362Y0042142D01*
X0201492Y0042232D01*
X0201625Y0042318D01*
X0201760Y0042402D01*
X0201896Y0042481D01*
X0202035Y0042558D01*
X0202176Y0042630D01*
X0202318Y0042700D01*
X0202462Y0042765D01*
X0202608Y0042827D01*
X0202755Y0042885D01*
X0202904Y0042940D01*
X0203054Y0042991D01*
X0203205Y0043038D01*
X0203357Y0043081D01*
X0203510Y0043120D01*
X0203665Y0043156D01*
X0203820Y0043187D01*
X0203976Y0043215D01*
X0204132Y0043239D01*
X0204289Y0043259D01*
X0204447Y0043275D01*
X0204604Y0043287D01*
X0204763Y0043295D01*
X0204921Y0043299D01*
X0205079Y0043299D01*
X0205237Y0043295D01*
X0205396Y0043287D01*
X0205553Y0043275D01*
X0205711Y0043259D01*
X0205868Y0043239D01*
X0206024Y0043215D01*
X0206180Y0043187D01*
X0206335Y0043156D01*
X0206490Y0043120D01*
X0206643Y0043081D01*
X0206795Y0043038D01*
X0206946Y0042991D01*
X0207096Y0042940D01*
X0207245Y0042885D01*
X0207392Y0042827D01*
X0207538Y0042765D01*
X0207682Y0042700D01*
X0207824Y0042630D01*
X0207965Y0042558D01*
X0208104Y0042481D01*
X0208240Y0042402D01*
X0208375Y0042318D01*
X0208508Y0042232D01*
X0208638Y0042142D01*
X0208766Y0042049D01*
X0208892Y0041953D01*
X0209015Y0041853D01*
X0209136Y0041751D01*
X0209254Y0041646D01*
X0209369Y0041537D01*
X0209482Y0041426D01*
X0209592Y0041312D01*
X0209699Y0041195D01*
X0209803Y0041076D01*
X0209904Y0040954D01*
X0210001Y0040829D01*
X0210096Y0040702D01*
X0210187Y0040573D01*
X0210276Y0040442D01*
X0210360Y0040308D01*
X0210442Y0040172D01*
X0210520Y0040035D01*
X0210594Y0039895D01*
X0210665Y0039753D01*
X0210733Y0039610D01*
X0210797Y0039465D01*
X0210857Y0039319D01*
X0210913Y0039171D01*
X0210966Y0039022D01*
X0211015Y0038871D01*
X0211060Y0038719D01*
X0211101Y0038566D01*
X0211139Y0038413D01*
X0211172Y0038258D01*
X0211202Y0038102D01*
X0211228Y0037946D01*
X0211249Y0037789D01*
X0211267Y0037632D01*
X0211281Y0037474D01*
X0211291Y0037316D01*
X0211297Y0037158D01*
X0211299Y0037000D01*
X0211297Y0036842D01*
X0211291Y0036684D01*
X0211281Y0036526D01*
X0211267Y0036368D01*
X0211249Y0036211D01*
X0211228Y0036054D01*
X0211202Y0035898D01*
X0211172Y0035742D01*
X0211139Y0035587D01*
X0211101Y0035434D01*
X0211060Y0035281D01*
X0211015Y0035129D01*
X0210966Y0034978D01*
X0210913Y0034829D01*
X0210857Y0034681D01*
X0210797Y0034535D01*
X0210733Y0034390D01*
X0210665Y0034247D01*
X0210594Y0034105D01*
X0210520Y0033965D01*
X0210442Y0033828D01*
X0210360Y0033692D01*
X0210276Y0033558D01*
X0210187Y0033427D01*
X0210096Y0033298D01*
X0210001Y0033171D01*
X0209904Y0033046D01*
X0209803Y0032924D01*
X0209699Y0032805D01*
X0209592Y0032688D01*
X0209482Y0032574D01*
X0209369Y0032463D01*
X0209254Y0032354D01*
X0209136Y0032249D01*
X0209015Y0032147D01*
X0208892Y0032047D01*
X0208766Y0031951D01*
X0208638Y0031858D01*
X0208508Y0031768D01*
X0208375Y0031682D01*
X0208240Y0031598D01*
X0208104Y0031519D01*
X0207965Y0031442D01*
X0207824Y0031370D01*
X0207682Y0031300D01*
X0207538Y0031235D01*
X0207392Y0031173D01*
X0207245Y0031115D01*
X0207096Y0031060D01*
X0206946Y0031009D01*
X0206795Y0030962D01*
X0206643Y0030919D01*
X0206490Y0030880D01*
X0206335Y0030844D01*
X0206180Y0030813D01*
X0206024Y0030785D01*
X0205868Y0030761D01*
X0205711Y0030741D01*
X0205553Y0030725D01*
X0205396Y0030713D01*
X0205237Y0030705D01*
X0205079Y0030701D01*
X0204921Y0030701D01*
X0204763Y0030705D01*
X0204604Y0030713D01*
X0204447Y0030725D01*
X0204289Y0030741D01*
X0204132Y0030761D01*
X0203976Y0030785D01*
X0203820Y0030813D01*
X0203665Y0030844D01*
X0203510Y0030880D01*
X0203357Y0030919D01*
X0203205Y0030962D01*
X0203054Y0031009D01*
X0202904Y0031060D01*
X0202755Y0031115D01*
X0202608Y0031173D01*
X0202462Y0031235D01*
X0202318Y0031300D01*
X0202176Y0031370D01*
X0202035Y0031442D01*
X0201896Y0031519D01*
X0201760Y0031598D01*
X0201625Y0031682D01*
X0201492Y0031768D01*
X0201362Y0031858D01*
X0201234Y0031951D01*
X0201108Y0032047D01*
X0200985Y0032147D01*
X0200864Y0032249D01*
X0200746Y0032354D01*
X0200631Y0032463D01*
X0200518Y0032574D01*
X0200408Y0032688D01*
X0200301Y0032805D01*
X0200197Y0032924D01*
X0200096Y0033046D01*
X0199999Y0033171D01*
X0199904Y0033298D01*
X0199813Y0033427D01*
X0199724Y0033558D01*
X0199640Y0033692D01*
X0199558Y0033828D01*
X0199480Y0033965D01*
X0199406Y0034105D01*
X0199335Y0034247D01*
X0199267Y0034390D01*
X0199203Y0034535D01*
X0199143Y0034681D01*
X0199087Y0034829D01*
X0199034Y0034978D01*
X0198985Y0035129D01*
X0198940Y0035281D01*
X0198899Y0035434D01*
X0198861Y0035587D01*
X0198828Y0035742D01*
X0198798Y0035898D01*
X0198772Y0036054D01*
X0198751Y0036211D01*
X0198733Y0036368D01*
X0198719Y0036526D01*
X0198709Y0036684D01*
X0198703Y0036842D01*
X0198701Y0037000D01*
X0411701Y0037000D02*
X0411703Y0037158D01*
X0411709Y0037316D01*
X0411719Y0037474D01*
X0411733Y0037632D01*
X0411751Y0037789D01*
X0411772Y0037946D01*
X0411798Y0038102D01*
X0411828Y0038258D01*
X0411861Y0038413D01*
X0411899Y0038566D01*
X0411940Y0038719D01*
X0411985Y0038871D01*
X0412034Y0039022D01*
X0412087Y0039171D01*
X0412143Y0039319D01*
X0412203Y0039465D01*
X0412267Y0039610D01*
X0412335Y0039753D01*
X0412406Y0039895D01*
X0412480Y0040035D01*
X0412558Y0040172D01*
X0412640Y0040308D01*
X0412724Y0040442D01*
X0412813Y0040573D01*
X0412904Y0040702D01*
X0412999Y0040829D01*
X0413096Y0040954D01*
X0413197Y0041076D01*
X0413301Y0041195D01*
X0413408Y0041312D01*
X0413518Y0041426D01*
X0413631Y0041537D01*
X0413746Y0041646D01*
X0413864Y0041751D01*
X0413985Y0041853D01*
X0414108Y0041953D01*
X0414234Y0042049D01*
X0414362Y0042142D01*
X0414492Y0042232D01*
X0414625Y0042318D01*
X0414760Y0042402D01*
X0414896Y0042481D01*
X0415035Y0042558D01*
X0415176Y0042630D01*
X0415318Y0042700D01*
X0415462Y0042765D01*
X0415608Y0042827D01*
X0415755Y0042885D01*
X0415904Y0042940D01*
X0416054Y0042991D01*
X0416205Y0043038D01*
X0416357Y0043081D01*
X0416510Y0043120D01*
X0416665Y0043156D01*
X0416820Y0043187D01*
X0416976Y0043215D01*
X0417132Y0043239D01*
X0417289Y0043259D01*
X0417447Y0043275D01*
X0417604Y0043287D01*
X0417763Y0043295D01*
X0417921Y0043299D01*
X0418079Y0043299D01*
X0418237Y0043295D01*
X0418396Y0043287D01*
X0418553Y0043275D01*
X0418711Y0043259D01*
X0418868Y0043239D01*
X0419024Y0043215D01*
X0419180Y0043187D01*
X0419335Y0043156D01*
X0419490Y0043120D01*
X0419643Y0043081D01*
X0419795Y0043038D01*
X0419946Y0042991D01*
X0420096Y0042940D01*
X0420245Y0042885D01*
X0420392Y0042827D01*
X0420538Y0042765D01*
X0420682Y0042700D01*
X0420824Y0042630D01*
X0420965Y0042558D01*
X0421104Y0042481D01*
X0421240Y0042402D01*
X0421375Y0042318D01*
X0421508Y0042232D01*
X0421638Y0042142D01*
X0421766Y0042049D01*
X0421892Y0041953D01*
X0422015Y0041853D01*
X0422136Y0041751D01*
X0422254Y0041646D01*
X0422369Y0041537D01*
X0422482Y0041426D01*
X0422592Y0041312D01*
X0422699Y0041195D01*
X0422803Y0041076D01*
X0422904Y0040954D01*
X0423001Y0040829D01*
X0423096Y0040702D01*
X0423187Y0040573D01*
X0423276Y0040442D01*
X0423360Y0040308D01*
X0423442Y0040172D01*
X0423520Y0040035D01*
X0423594Y0039895D01*
X0423665Y0039753D01*
X0423733Y0039610D01*
X0423797Y0039465D01*
X0423857Y0039319D01*
X0423913Y0039171D01*
X0423966Y0039022D01*
X0424015Y0038871D01*
X0424060Y0038719D01*
X0424101Y0038566D01*
X0424139Y0038413D01*
X0424172Y0038258D01*
X0424202Y0038102D01*
X0424228Y0037946D01*
X0424249Y0037789D01*
X0424267Y0037632D01*
X0424281Y0037474D01*
X0424291Y0037316D01*
X0424297Y0037158D01*
X0424299Y0037000D01*
X0424297Y0036842D01*
X0424291Y0036684D01*
X0424281Y0036526D01*
X0424267Y0036368D01*
X0424249Y0036211D01*
X0424228Y0036054D01*
X0424202Y0035898D01*
X0424172Y0035742D01*
X0424139Y0035587D01*
X0424101Y0035434D01*
X0424060Y0035281D01*
X0424015Y0035129D01*
X0423966Y0034978D01*
X0423913Y0034829D01*
X0423857Y0034681D01*
X0423797Y0034535D01*
X0423733Y0034390D01*
X0423665Y0034247D01*
X0423594Y0034105D01*
X0423520Y0033965D01*
X0423442Y0033828D01*
X0423360Y0033692D01*
X0423276Y0033558D01*
X0423187Y0033427D01*
X0423096Y0033298D01*
X0423001Y0033171D01*
X0422904Y0033046D01*
X0422803Y0032924D01*
X0422699Y0032805D01*
X0422592Y0032688D01*
X0422482Y0032574D01*
X0422369Y0032463D01*
X0422254Y0032354D01*
X0422136Y0032249D01*
X0422015Y0032147D01*
X0421892Y0032047D01*
X0421766Y0031951D01*
X0421638Y0031858D01*
X0421508Y0031768D01*
X0421375Y0031682D01*
X0421240Y0031598D01*
X0421104Y0031519D01*
X0420965Y0031442D01*
X0420824Y0031370D01*
X0420682Y0031300D01*
X0420538Y0031235D01*
X0420392Y0031173D01*
X0420245Y0031115D01*
X0420096Y0031060D01*
X0419946Y0031009D01*
X0419795Y0030962D01*
X0419643Y0030919D01*
X0419490Y0030880D01*
X0419335Y0030844D01*
X0419180Y0030813D01*
X0419024Y0030785D01*
X0418868Y0030761D01*
X0418711Y0030741D01*
X0418553Y0030725D01*
X0418396Y0030713D01*
X0418237Y0030705D01*
X0418079Y0030701D01*
X0417921Y0030701D01*
X0417763Y0030705D01*
X0417604Y0030713D01*
X0417447Y0030725D01*
X0417289Y0030741D01*
X0417132Y0030761D01*
X0416976Y0030785D01*
X0416820Y0030813D01*
X0416665Y0030844D01*
X0416510Y0030880D01*
X0416357Y0030919D01*
X0416205Y0030962D01*
X0416054Y0031009D01*
X0415904Y0031060D01*
X0415755Y0031115D01*
X0415608Y0031173D01*
X0415462Y0031235D01*
X0415318Y0031300D01*
X0415176Y0031370D01*
X0415035Y0031442D01*
X0414896Y0031519D01*
X0414760Y0031598D01*
X0414625Y0031682D01*
X0414492Y0031768D01*
X0414362Y0031858D01*
X0414234Y0031951D01*
X0414108Y0032047D01*
X0413985Y0032147D01*
X0413864Y0032249D01*
X0413746Y0032354D01*
X0413631Y0032463D01*
X0413518Y0032574D01*
X0413408Y0032688D01*
X0413301Y0032805D01*
X0413197Y0032924D01*
X0413096Y0033046D01*
X0412999Y0033171D01*
X0412904Y0033298D01*
X0412813Y0033427D01*
X0412724Y0033558D01*
X0412640Y0033692D01*
X0412558Y0033828D01*
X0412480Y0033965D01*
X0412406Y0034105D01*
X0412335Y0034247D01*
X0412267Y0034390D01*
X0412203Y0034535D01*
X0412143Y0034681D01*
X0412087Y0034829D01*
X0412034Y0034978D01*
X0411985Y0035129D01*
X0411940Y0035281D01*
X0411899Y0035434D01*
X0411861Y0035587D01*
X0411828Y0035742D01*
X0411798Y0035898D01*
X0411772Y0036054D01*
X0411751Y0036211D01*
X0411733Y0036368D01*
X0411719Y0036526D01*
X0411709Y0036684D01*
X0411703Y0036842D01*
X0411701Y0037000D01*
X0586701Y0221000D02*
X0586703Y0221158D01*
X0586709Y0221316D01*
X0586719Y0221474D01*
X0586733Y0221632D01*
X0586751Y0221789D01*
X0586772Y0221946D01*
X0586798Y0222102D01*
X0586828Y0222258D01*
X0586861Y0222413D01*
X0586899Y0222566D01*
X0586940Y0222719D01*
X0586985Y0222871D01*
X0587034Y0223022D01*
X0587087Y0223171D01*
X0587143Y0223319D01*
X0587203Y0223465D01*
X0587267Y0223610D01*
X0587335Y0223753D01*
X0587406Y0223895D01*
X0587480Y0224035D01*
X0587558Y0224172D01*
X0587640Y0224308D01*
X0587724Y0224442D01*
X0587813Y0224573D01*
X0587904Y0224702D01*
X0587999Y0224829D01*
X0588096Y0224954D01*
X0588197Y0225076D01*
X0588301Y0225195D01*
X0588408Y0225312D01*
X0588518Y0225426D01*
X0588631Y0225537D01*
X0588746Y0225646D01*
X0588864Y0225751D01*
X0588985Y0225853D01*
X0589108Y0225953D01*
X0589234Y0226049D01*
X0589362Y0226142D01*
X0589492Y0226232D01*
X0589625Y0226318D01*
X0589760Y0226402D01*
X0589896Y0226481D01*
X0590035Y0226558D01*
X0590176Y0226630D01*
X0590318Y0226700D01*
X0590462Y0226765D01*
X0590608Y0226827D01*
X0590755Y0226885D01*
X0590904Y0226940D01*
X0591054Y0226991D01*
X0591205Y0227038D01*
X0591357Y0227081D01*
X0591510Y0227120D01*
X0591665Y0227156D01*
X0591820Y0227187D01*
X0591976Y0227215D01*
X0592132Y0227239D01*
X0592289Y0227259D01*
X0592447Y0227275D01*
X0592604Y0227287D01*
X0592763Y0227295D01*
X0592921Y0227299D01*
X0593079Y0227299D01*
X0593237Y0227295D01*
X0593396Y0227287D01*
X0593553Y0227275D01*
X0593711Y0227259D01*
X0593868Y0227239D01*
X0594024Y0227215D01*
X0594180Y0227187D01*
X0594335Y0227156D01*
X0594490Y0227120D01*
X0594643Y0227081D01*
X0594795Y0227038D01*
X0594946Y0226991D01*
X0595096Y0226940D01*
X0595245Y0226885D01*
X0595392Y0226827D01*
X0595538Y0226765D01*
X0595682Y0226700D01*
X0595824Y0226630D01*
X0595965Y0226558D01*
X0596104Y0226481D01*
X0596240Y0226402D01*
X0596375Y0226318D01*
X0596508Y0226232D01*
X0596638Y0226142D01*
X0596766Y0226049D01*
X0596892Y0225953D01*
X0597015Y0225853D01*
X0597136Y0225751D01*
X0597254Y0225646D01*
X0597369Y0225537D01*
X0597482Y0225426D01*
X0597592Y0225312D01*
X0597699Y0225195D01*
X0597803Y0225076D01*
X0597904Y0224954D01*
X0598001Y0224829D01*
X0598096Y0224702D01*
X0598187Y0224573D01*
X0598276Y0224442D01*
X0598360Y0224308D01*
X0598442Y0224172D01*
X0598520Y0224035D01*
X0598594Y0223895D01*
X0598665Y0223753D01*
X0598733Y0223610D01*
X0598797Y0223465D01*
X0598857Y0223319D01*
X0598913Y0223171D01*
X0598966Y0223022D01*
X0599015Y0222871D01*
X0599060Y0222719D01*
X0599101Y0222566D01*
X0599139Y0222413D01*
X0599172Y0222258D01*
X0599202Y0222102D01*
X0599228Y0221946D01*
X0599249Y0221789D01*
X0599267Y0221632D01*
X0599281Y0221474D01*
X0599291Y0221316D01*
X0599297Y0221158D01*
X0599299Y0221000D01*
X0599297Y0220842D01*
X0599291Y0220684D01*
X0599281Y0220526D01*
X0599267Y0220368D01*
X0599249Y0220211D01*
X0599228Y0220054D01*
X0599202Y0219898D01*
X0599172Y0219742D01*
X0599139Y0219587D01*
X0599101Y0219434D01*
X0599060Y0219281D01*
X0599015Y0219129D01*
X0598966Y0218978D01*
X0598913Y0218829D01*
X0598857Y0218681D01*
X0598797Y0218535D01*
X0598733Y0218390D01*
X0598665Y0218247D01*
X0598594Y0218105D01*
X0598520Y0217965D01*
X0598442Y0217828D01*
X0598360Y0217692D01*
X0598276Y0217558D01*
X0598187Y0217427D01*
X0598096Y0217298D01*
X0598001Y0217171D01*
X0597904Y0217046D01*
X0597803Y0216924D01*
X0597699Y0216805D01*
X0597592Y0216688D01*
X0597482Y0216574D01*
X0597369Y0216463D01*
X0597254Y0216354D01*
X0597136Y0216249D01*
X0597015Y0216147D01*
X0596892Y0216047D01*
X0596766Y0215951D01*
X0596638Y0215858D01*
X0596508Y0215768D01*
X0596375Y0215682D01*
X0596240Y0215598D01*
X0596104Y0215519D01*
X0595965Y0215442D01*
X0595824Y0215370D01*
X0595682Y0215300D01*
X0595538Y0215235D01*
X0595392Y0215173D01*
X0595245Y0215115D01*
X0595096Y0215060D01*
X0594946Y0215009D01*
X0594795Y0214962D01*
X0594643Y0214919D01*
X0594490Y0214880D01*
X0594335Y0214844D01*
X0594180Y0214813D01*
X0594024Y0214785D01*
X0593868Y0214761D01*
X0593711Y0214741D01*
X0593553Y0214725D01*
X0593396Y0214713D01*
X0593237Y0214705D01*
X0593079Y0214701D01*
X0592921Y0214701D01*
X0592763Y0214705D01*
X0592604Y0214713D01*
X0592447Y0214725D01*
X0592289Y0214741D01*
X0592132Y0214761D01*
X0591976Y0214785D01*
X0591820Y0214813D01*
X0591665Y0214844D01*
X0591510Y0214880D01*
X0591357Y0214919D01*
X0591205Y0214962D01*
X0591054Y0215009D01*
X0590904Y0215060D01*
X0590755Y0215115D01*
X0590608Y0215173D01*
X0590462Y0215235D01*
X0590318Y0215300D01*
X0590176Y0215370D01*
X0590035Y0215442D01*
X0589896Y0215519D01*
X0589760Y0215598D01*
X0589625Y0215682D01*
X0589492Y0215768D01*
X0589362Y0215858D01*
X0589234Y0215951D01*
X0589108Y0216047D01*
X0588985Y0216147D01*
X0588864Y0216249D01*
X0588746Y0216354D01*
X0588631Y0216463D01*
X0588518Y0216574D01*
X0588408Y0216688D01*
X0588301Y0216805D01*
X0588197Y0216924D01*
X0588096Y0217046D01*
X0587999Y0217171D01*
X0587904Y0217298D01*
X0587813Y0217427D01*
X0587724Y0217558D01*
X0587640Y0217692D01*
X0587558Y0217828D01*
X0587480Y0217965D01*
X0587406Y0218105D01*
X0587335Y0218247D01*
X0587267Y0218390D01*
X0587203Y0218535D01*
X0587143Y0218681D01*
X0587087Y0218829D01*
X0587034Y0218978D01*
X0586985Y0219129D01*
X0586940Y0219281D01*
X0586899Y0219434D01*
X0586861Y0219587D01*
X0586828Y0219742D01*
X0586798Y0219898D01*
X0586772Y0220054D01*
X0586751Y0220211D01*
X0586733Y0220368D01*
X0586719Y0220526D01*
X0586709Y0220684D01*
X0586703Y0220842D01*
X0586701Y0221000D01*
X0021701Y0221000D02*
X0021703Y0221158D01*
X0021709Y0221316D01*
X0021719Y0221474D01*
X0021733Y0221632D01*
X0021751Y0221789D01*
X0021772Y0221946D01*
X0021798Y0222102D01*
X0021828Y0222258D01*
X0021861Y0222413D01*
X0021899Y0222566D01*
X0021940Y0222719D01*
X0021985Y0222871D01*
X0022034Y0223022D01*
X0022087Y0223171D01*
X0022143Y0223319D01*
X0022203Y0223465D01*
X0022267Y0223610D01*
X0022335Y0223753D01*
X0022406Y0223895D01*
X0022480Y0224035D01*
X0022558Y0224172D01*
X0022640Y0224308D01*
X0022724Y0224442D01*
X0022813Y0224573D01*
X0022904Y0224702D01*
X0022999Y0224829D01*
X0023096Y0224954D01*
X0023197Y0225076D01*
X0023301Y0225195D01*
X0023408Y0225312D01*
X0023518Y0225426D01*
X0023631Y0225537D01*
X0023746Y0225646D01*
X0023864Y0225751D01*
X0023985Y0225853D01*
X0024108Y0225953D01*
X0024234Y0226049D01*
X0024362Y0226142D01*
X0024492Y0226232D01*
X0024625Y0226318D01*
X0024760Y0226402D01*
X0024896Y0226481D01*
X0025035Y0226558D01*
X0025176Y0226630D01*
X0025318Y0226700D01*
X0025462Y0226765D01*
X0025608Y0226827D01*
X0025755Y0226885D01*
X0025904Y0226940D01*
X0026054Y0226991D01*
X0026205Y0227038D01*
X0026357Y0227081D01*
X0026510Y0227120D01*
X0026665Y0227156D01*
X0026820Y0227187D01*
X0026976Y0227215D01*
X0027132Y0227239D01*
X0027289Y0227259D01*
X0027447Y0227275D01*
X0027604Y0227287D01*
X0027763Y0227295D01*
X0027921Y0227299D01*
X0028079Y0227299D01*
X0028237Y0227295D01*
X0028396Y0227287D01*
X0028553Y0227275D01*
X0028711Y0227259D01*
X0028868Y0227239D01*
X0029024Y0227215D01*
X0029180Y0227187D01*
X0029335Y0227156D01*
X0029490Y0227120D01*
X0029643Y0227081D01*
X0029795Y0227038D01*
X0029946Y0226991D01*
X0030096Y0226940D01*
X0030245Y0226885D01*
X0030392Y0226827D01*
X0030538Y0226765D01*
X0030682Y0226700D01*
X0030824Y0226630D01*
X0030965Y0226558D01*
X0031104Y0226481D01*
X0031240Y0226402D01*
X0031375Y0226318D01*
X0031508Y0226232D01*
X0031638Y0226142D01*
X0031766Y0226049D01*
X0031892Y0225953D01*
X0032015Y0225853D01*
X0032136Y0225751D01*
X0032254Y0225646D01*
X0032369Y0225537D01*
X0032482Y0225426D01*
X0032592Y0225312D01*
X0032699Y0225195D01*
X0032803Y0225076D01*
X0032904Y0224954D01*
X0033001Y0224829D01*
X0033096Y0224702D01*
X0033187Y0224573D01*
X0033276Y0224442D01*
X0033360Y0224308D01*
X0033442Y0224172D01*
X0033520Y0224035D01*
X0033594Y0223895D01*
X0033665Y0223753D01*
X0033733Y0223610D01*
X0033797Y0223465D01*
X0033857Y0223319D01*
X0033913Y0223171D01*
X0033966Y0223022D01*
X0034015Y0222871D01*
X0034060Y0222719D01*
X0034101Y0222566D01*
X0034139Y0222413D01*
X0034172Y0222258D01*
X0034202Y0222102D01*
X0034228Y0221946D01*
X0034249Y0221789D01*
X0034267Y0221632D01*
X0034281Y0221474D01*
X0034291Y0221316D01*
X0034297Y0221158D01*
X0034299Y0221000D01*
X0034297Y0220842D01*
X0034291Y0220684D01*
X0034281Y0220526D01*
X0034267Y0220368D01*
X0034249Y0220211D01*
X0034228Y0220054D01*
X0034202Y0219898D01*
X0034172Y0219742D01*
X0034139Y0219587D01*
X0034101Y0219434D01*
X0034060Y0219281D01*
X0034015Y0219129D01*
X0033966Y0218978D01*
X0033913Y0218829D01*
X0033857Y0218681D01*
X0033797Y0218535D01*
X0033733Y0218390D01*
X0033665Y0218247D01*
X0033594Y0218105D01*
X0033520Y0217965D01*
X0033442Y0217828D01*
X0033360Y0217692D01*
X0033276Y0217558D01*
X0033187Y0217427D01*
X0033096Y0217298D01*
X0033001Y0217171D01*
X0032904Y0217046D01*
X0032803Y0216924D01*
X0032699Y0216805D01*
X0032592Y0216688D01*
X0032482Y0216574D01*
X0032369Y0216463D01*
X0032254Y0216354D01*
X0032136Y0216249D01*
X0032015Y0216147D01*
X0031892Y0216047D01*
X0031766Y0215951D01*
X0031638Y0215858D01*
X0031508Y0215768D01*
X0031375Y0215682D01*
X0031240Y0215598D01*
X0031104Y0215519D01*
X0030965Y0215442D01*
X0030824Y0215370D01*
X0030682Y0215300D01*
X0030538Y0215235D01*
X0030392Y0215173D01*
X0030245Y0215115D01*
X0030096Y0215060D01*
X0029946Y0215009D01*
X0029795Y0214962D01*
X0029643Y0214919D01*
X0029490Y0214880D01*
X0029335Y0214844D01*
X0029180Y0214813D01*
X0029024Y0214785D01*
X0028868Y0214761D01*
X0028711Y0214741D01*
X0028553Y0214725D01*
X0028396Y0214713D01*
X0028237Y0214705D01*
X0028079Y0214701D01*
X0027921Y0214701D01*
X0027763Y0214705D01*
X0027604Y0214713D01*
X0027447Y0214725D01*
X0027289Y0214741D01*
X0027132Y0214761D01*
X0026976Y0214785D01*
X0026820Y0214813D01*
X0026665Y0214844D01*
X0026510Y0214880D01*
X0026357Y0214919D01*
X0026205Y0214962D01*
X0026054Y0215009D01*
X0025904Y0215060D01*
X0025755Y0215115D01*
X0025608Y0215173D01*
X0025462Y0215235D01*
X0025318Y0215300D01*
X0025176Y0215370D01*
X0025035Y0215442D01*
X0024896Y0215519D01*
X0024760Y0215598D01*
X0024625Y0215682D01*
X0024492Y0215768D01*
X0024362Y0215858D01*
X0024234Y0215951D01*
X0024108Y0216047D01*
X0023985Y0216147D01*
X0023864Y0216249D01*
X0023746Y0216354D01*
X0023631Y0216463D01*
X0023518Y0216574D01*
X0023408Y0216688D01*
X0023301Y0216805D01*
X0023197Y0216924D01*
X0023096Y0217046D01*
X0022999Y0217171D01*
X0022904Y0217298D01*
X0022813Y0217427D01*
X0022724Y0217558D01*
X0022640Y0217692D01*
X0022558Y0217828D01*
X0022480Y0217965D01*
X0022406Y0218105D01*
X0022335Y0218247D01*
X0022267Y0218390D01*
X0022203Y0218535D01*
X0022143Y0218681D01*
X0022087Y0218829D01*
X0022034Y0218978D01*
X0021985Y0219129D01*
X0021940Y0219281D01*
X0021899Y0219434D01*
X0021861Y0219587D01*
X0021828Y0219742D01*
X0021798Y0219898D01*
X0021772Y0220054D01*
X0021751Y0220211D01*
X0021733Y0220368D01*
X0021719Y0220526D01*
X0021709Y0220684D01*
X0021703Y0220842D01*
X0021701Y0221000D01*
D11*
X0126201Y0220328D03*
D12*
X0126201Y0190328D03*
D13*
X0524031Y0167378D03*
X0535055Y0167378D03*
D14*
X0333953Y0216795D03*
X0333953Y0227819D03*
X0314606Y0227828D03*
X0314606Y0216805D03*
D15*
X0412835Y0077929D03*
X0422677Y0077929D03*
X0422717Y0064291D03*
X0412874Y0064291D03*
X0210260Y0064291D03*
X0200417Y0064291D03*
X0200435Y0077350D03*
X0210277Y0077350D03*
D16*
X0069492Y0207902D03*
X0069492Y0227587D03*
D17*
X0307701Y0153780D03*
X0308165Y0139622D03*
X0322953Y0135622D03*
X0369811Y0165929D03*
X0372283Y0205370D03*
D18*
X0355268Y0090078D03*
X0366593Y0087287D03*
X0375324Y0079552D03*
X0379460Y0068646D03*
X0378054Y0057067D03*
X0371428Y0047468D03*
X0361100Y0042047D03*
X0349436Y0042047D03*
X0339107Y0047468D03*
X0332481Y0057067D03*
X0331076Y0068646D03*
X0335212Y0079552D03*
X0343943Y0087287D03*
X0292846Y0068646D03*
X0291440Y0057067D03*
X0284814Y0047468D03*
X0274485Y0042047D03*
X0262822Y0042047D03*
X0252493Y0047468D03*
X0245867Y0057067D03*
X0244461Y0068646D03*
X0248598Y0079552D03*
X0257328Y0087287D03*
X0268654Y0090078D03*
X0279979Y0087287D03*
X0288709Y0079552D03*
X0166861Y0068646D03*
X0165456Y0057067D03*
X0158830Y0047468D03*
X0148501Y0042047D03*
X0136837Y0042047D03*
X0126509Y0047468D03*
X0119883Y0057067D03*
X0118477Y0068646D03*
X0122613Y0079552D03*
X0131344Y0087287D03*
X0142669Y0090078D03*
X0153994Y0087287D03*
X0162725Y0079552D03*
X0080247Y0068646D03*
X0078841Y0057067D03*
X0072215Y0047468D03*
X0061887Y0042047D03*
X0050223Y0042047D03*
X0039895Y0047468D03*
X0033269Y0057067D03*
X0031863Y0068646D03*
X0035999Y0079552D03*
X0044730Y0087287D03*
X0056055Y0090078D03*
X0067380Y0087287D03*
X0076111Y0079552D03*
X0457060Y0068646D03*
X0458466Y0057067D03*
X0465092Y0047468D03*
X0475420Y0042047D03*
X0487084Y0042047D03*
X0497412Y0047468D03*
X0504038Y0057067D03*
X0505444Y0068646D03*
X0501308Y0079552D03*
X0492577Y0087287D03*
X0481252Y0090078D03*
X0469927Y0087287D03*
X0461196Y0079552D03*
X0543674Y0068646D03*
X0545080Y0057067D03*
X0551706Y0047468D03*
X0562034Y0042047D03*
X0573698Y0042047D03*
X0584026Y0047468D03*
X0590652Y0057067D03*
X0592058Y0068646D03*
X0587922Y0079552D03*
X0579191Y0087287D03*
X0567866Y0090078D03*
X0556541Y0087287D03*
X0547810Y0079552D03*
D19*
X0215827Y0208919D03*
X0175827Y0218919D03*
X0175827Y0198919D03*
D20*
X0461039Y0229378D03*
X0478071Y0229378D03*
D21*
X0333898Y0207624D03*
X0314898Y0207624D03*
D22*
X0229460Y0089548D03*
X0229460Y0078351D03*
X0221488Y0068402D03*
X0221488Y0057205D03*
X0268676Y0058021D03*
X0268676Y0069218D03*
X0355102Y0071289D03*
X0355102Y0060092D03*
X0435362Y0055260D03*
X0435362Y0066457D03*
X0481096Y0071262D03*
X0481096Y0060065D03*
X0567866Y0059984D03*
X0567866Y0071181D03*
X0142676Y0071180D03*
X0142676Y0059983D03*
X0055892Y0060854D03*
X0055892Y0072051D03*
D23*
X0401138Y0163337D03*
X0431138Y0163337D03*
D24*
X0421138Y0163337D03*
X0411138Y0163337D03*
X0411138Y0153337D03*
X0421138Y0153337D03*
X0431138Y0153337D03*
X0401138Y0153337D03*
D25*
X0593000Y0221000D03*
X0418000Y0037000D03*
X0205000Y0037000D03*
X0028000Y0221000D03*
D26*
X0363402Y0193000D03*
X0374598Y0193000D03*
X0433102Y0077260D03*
X0444299Y0077260D03*
D27*
X0392000Y0099000D03*
X0385000Y0095000D03*
X0377000Y0104000D03*
X0368000Y0104000D03*
X0398000Y0122000D03*
X0419000Y0123000D03*
X0420000Y0129000D03*
X0427000Y0134000D03*
X0443000Y0141000D03*
X0446000Y0129000D03*
X0475000Y0124000D03*
X0495200Y0119600D03*
X0506000Y0128000D03*
X0511000Y0134000D03*
X0516000Y0140000D03*
X0497000Y0145000D03*
X0532000Y0154000D03*
X0546000Y0146000D03*
X0560000Y0145000D03*
X0576000Y0135000D03*
X0567000Y0121000D03*
X0560000Y0115000D03*
X0555000Y0121000D03*
X0535000Y0107000D03*
X0535000Y0097000D03*
X0528000Y0091000D03*
X0547000Y0098000D03*
X0528000Y0082000D03*
X0511000Y0078000D03*
X0529000Y0071000D03*
X0504000Y0091000D03*
X0442000Y0115000D03*
X0521000Y0120000D03*
X0601000Y0108000D03*
X0547556Y0164576D03*
X0524000Y0176000D03*
X0513000Y0170000D03*
X0516000Y0165000D03*
X0484000Y0177000D03*
X0486000Y0185000D03*
X0502000Y0194000D03*
X0502000Y0209000D03*
X0466000Y0193000D03*
X0464000Y0169000D03*
X0384000Y0169000D03*
X0383000Y0157000D03*
X0369000Y0150000D03*
X0360000Y0150000D03*
X0344000Y0161000D03*
X0327000Y0171000D03*
X0327000Y0177000D03*
X0309000Y0170000D03*
X0300000Y0172000D03*
X0273000Y0162000D03*
X0292000Y0151000D03*
X0285000Y0147000D03*
X0279000Y0141000D03*
X0276800Y0131400D03*
X0271000Y0131000D03*
X0252000Y0128000D03*
X0244000Y0128000D03*
X0236000Y0126000D03*
X0229000Y0129600D03*
X0237800Y0133800D03*
X0246000Y0136000D03*
X0241000Y0145000D03*
X0232000Y0149000D03*
X0225000Y0154000D03*
X0181000Y0154000D03*
X0171000Y0165000D03*
X0160000Y0165000D03*
X0136000Y0171000D03*
X0098000Y0175000D03*
X0034000Y0196000D03*
X0109000Y0143000D03*
X0124000Y0138000D03*
X0145000Y0137000D03*
X0195400Y0123000D03*
X0247000Y0106000D03*
X0247000Y0097000D03*
X0247000Y0088000D03*
X0295000Y0114000D03*
X0282000Y0122000D03*
X0262000Y0119000D03*
X0294000Y0133000D03*
X0335000Y0131000D03*
X0344000Y0137000D03*
X0352000Y0135000D03*
X0264000Y0179000D03*
X0275000Y0187000D03*
X0276000Y0205000D03*
X0258500Y0220500D03*
X0253000Y0225000D03*
X0302000Y0223000D03*
X0342000Y0224000D03*
X0345000Y0192000D03*
X0364000Y0182000D03*
X0373000Y0183000D03*
X0233000Y0179000D03*
X0080000Y0137000D03*
X0099000Y0109000D03*
X0116000Y0099000D03*
X0088000Y0086000D03*
X0109000Y0073000D03*
X0177000Y0086000D03*
X0180000Y0070000D03*
X0188000Y0070000D03*
X0095000Y0035000D03*
X0072600Y0029400D03*
X0056000Y0024000D03*
X0047000Y0020000D03*
X0128000Y0019000D03*
X0142000Y0023000D03*
X0157000Y0029000D03*
X0254000Y0019000D03*
X0268600Y0022800D03*
X0283000Y0029000D03*
X0301000Y0029000D03*
X0338000Y0019000D03*
X0355200Y0023000D03*
X0369000Y0029000D03*
X0467200Y0019400D03*
X0481400Y0023000D03*
X0499000Y0029000D03*
X0553200Y0020000D03*
X0568000Y0024000D03*
X0583000Y0029000D03*
X0601000Y0014000D03*
X0567000Y0185000D03*
X0017000Y0099000D03*
M02*
