G75*
%MOIN*%
%OFA0B0*%
%FSLAX25Y25*%
%IPPOS*%
%LPD*%
%AMOC8*
5,1,8,0,0,1.08239X$1,22.5*
%
%ADD10C,0.00000*%
%ADD11R,0.22000X0.90000*%
%ADD12R,0.77000X0.50000*%
%ADD13R,0.17000X0.66000*%
%ADD14R,0.33000X0.46000*%
%ADD15R,0.24000X0.60000*%
%ADD16R,0.13780X0.06299*%
%ADD17R,0.07087X0.06299*%
%ADD18OC8,0.12400*%
%ADD19C,0.12400*%
%ADD20R,0.10236X0.06299*%
%ADD21R,0.06299X0.07087*%
%ADD22R,0.06693X0.07087*%
%ADD23C,0.05600*%
%ADD24R,0.07874X0.01969*%
%ADD25R,0.01969X0.07874*%
%ADD26R,0.02362X0.08661*%
%ADD27R,0.02200X0.05000*%
%ADD28R,0.05000X0.02200*%
%ADD29R,0.22835X0.24409*%
%ADD30R,0.06299X0.11811*%
%ADD31C,0.07087*%
%ADD32OC8,0.08500*%
%ADD33C,0.05307*%
%ADD34OC8,0.08661*%
%ADD35OC8,0.10050*%
%ADD36C,0.05200*%
%ADD37R,0.07098X0.06299*%
%ADD38R,0.06299X0.07098*%
%ADD39R,0.05512X0.03937*%
%ADD40R,0.24409X0.21260*%
%ADD41R,0.06299X0.03937*%
%ADD42R,0.03937X0.05512*%
%ADD43R,0.08800X0.04800*%
%ADD44R,0.08661X0.14173*%
%ADD45R,0.04800X0.08800*%
%ADD46R,0.14173X0.08661*%
%ADD47R,0.05150X0.05150*%
%ADD48C,0.05150*%
%ADD49C,0.01937*%
%ADD50C,0.04000*%
%ADD51C,0.03962*%
%ADD52C,0.01600*%
%ADD53C,0.03200*%
%ADD54C,0.02400*%
D10*
X0001000Y0001000D02*
X0001000Y0244591D01*
X0616921Y0244591D01*
X0616921Y0001000D01*
X0001000Y0001000D01*
X0198701Y0037000D02*
X0198703Y0037158D01*
X0198709Y0037316D01*
X0198719Y0037474D01*
X0198733Y0037632D01*
X0198751Y0037789D01*
X0198772Y0037946D01*
X0198798Y0038102D01*
X0198828Y0038258D01*
X0198861Y0038413D01*
X0198899Y0038566D01*
X0198940Y0038719D01*
X0198985Y0038871D01*
X0199034Y0039022D01*
X0199087Y0039171D01*
X0199143Y0039319D01*
X0199203Y0039465D01*
X0199267Y0039610D01*
X0199335Y0039753D01*
X0199406Y0039895D01*
X0199480Y0040035D01*
X0199558Y0040172D01*
X0199640Y0040308D01*
X0199724Y0040442D01*
X0199813Y0040573D01*
X0199904Y0040702D01*
X0199999Y0040829D01*
X0200096Y0040954D01*
X0200197Y0041076D01*
X0200301Y0041195D01*
X0200408Y0041312D01*
X0200518Y0041426D01*
X0200631Y0041537D01*
X0200746Y0041646D01*
X0200864Y0041751D01*
X0200985Y0041853D01*
X0201108Y0041953D01*
X0201234Y0042049D01*
X0201362Y0042142D01*
X0201492Y0042232D01*
X0201625Y0042318D01*
X0201760Y0042402D01*
X0201896Y0042481D01*
X0202035Y0042558D01*
X0202176Y0042630D01*
X0202318Y0042700D01*
X0202462Y0042765D01*
X0202608Y0042827D01*
X0202755Y0042885D01*
X0202904Y0042940D01*
X0203054Y0042991D01*
X0203205Y0043038D01*
X0203357Y0043081D01*
X0203510Y0043120D01*
X0203665Y0043156D01*
X0203820Y0043187D01*
X0203976Y0043215D01*
X0204132Y0043239D01*
X0204289Y0043259D01*
X0204447Y0043275D01*
X0204604Y0043287D01*
X0204763Y0043295D01*
X0204921Y0043299D01*
X0205079Y0043299D01*
X0205237Y0043295D01*
X0205396Y0043287D01*
X0205553Y0043275D01*
X0205711Y0043259D01*
X0205868Y0043239D01*
X0206024Y0043215D01*
X0206180Y0043187D01*
X0206335Y0043156D01*
X0206490Y0043120D01*
X0206643Y0043081D01*
X0206795Y0043038D01*
X0206946Y0042991D01*
X0207096Y0042940D01*
X0207245Y0042885D01*
X0207392Y0042827D01*
X0207538Y0042765D01*
X0207682Y0042700D01*
X0207824Y0042630D01*
X0207965Y0042558D01*
X0208104Y0042481D01*
X0208240Y0042402D01*
X0208375Y0042318D01*
X0208508Y0042232D01*
X0208638Y0042142D01*
X0208766Y0042049D01*
X0208892Y0041953D01*
X0209015Y0041853D01*
X0209136Y0041751D01*
X0209254Y0041646D01*
X0209369Y0041537D01*
X0209482Y0041426D01*
X0209592Y0041312D01*
X0209699Y0041195D01*
X0209803Y0041076D01*
X0209904Y0040954D01*
X0210001Y0040829D01*
X0210096Y0040702D01*
X0210187Y0040573D01*
X0210276Y0040442D01*
X0210360Y0040308D01*
X0210442Y0040172D01*
X0210520Y0040035D01*
X0210594Y0039895D01*
X0210665Y0039753D01*
X0210733Y0039610D01*
X0210797Y0039465D01*
X0210857Y0039319D01*
X0210913Y0039171D01*
X0210966Y0039022D01*
X0211015Y0038871D01*
X0211060Y0038719D01*
X0211101Y0038566D01*
X0211139Y0038413D01*
X0211172Y0038258D01*
X0211202Y0038102D01*
X0211228Y0037946D01*
X0211249Y0037789D01*
X0211267Y0037632D01*
X0211281Y0037474D01*
X0211291Y0037316D01*
X0211297Y0037158D01*
X0211299Y0037000D01*
X0211297Y0036842D01*
X0211291Y0036684D01*
X0211281Y0036526D01*
X0211267Y0036368D01*
X0211249Y0036211D01*
X0211228Y0036054D01*
X0211202Y0035898D01*
X0211172Y0035742D01*
X0211139Y0035587D01*
X0211101Y0035434D01*
X0211060Y0035281D01*
X0211015Y0035129D01*
X0210966Y0034978D01*
X0210913Y0034829D01*
X0210857Y0034681D01*
X0210797Y0034535D01*
X0210733Y0034390D01*
X0210665Y0034247D01*
X0210594Y0034105D01*
X0210520Y0033965D01*
X0210442Y0033828D01*
X0210360Y0033692D01*
X0210276Y0033558D01*
X0210187Y0033427D01*
X0210096Y0033298D01*
X0210001Y0033171D01*
X0209904Y0033046D01*
X0209803Y0032924D01*
X0209699Y0032805D01*
X0209592Y0032688D01*
X0209482Y0032574D01*
X0209369Y0032463D01*
X0209254Y0032354D01*
X0209136Y0032249D01*
X0209015Y0032147D01*
X0208892Y0032047D01*
X0208766Y0031951D01*
X0208638Y0031858D01*
X0208508Y0031768D01*
X0208375Y0031682D01*
X0208240Y0031598D01*
X0208104Y0031519D01*
X0207965Y0031442D01*
X0207824Y0031370D01*
X0207682Y0031300D01*
X0207538Y0031235D01*
X0207392Y0031173D01*
X0207245Y0031115D01*
X0207096Y0031060D01*
X0206946Y0031009D01*
X0206795Y0030962D01*
X0206643Y0030919D01*
X0206490Y0030880D01*
X0206335Y0030844D01*
X0206180Y0030813D01*
X0206024Y0030785D01*
X0205868Y0030761D01*
X0205711Y0030741D01*
X0205553Y0030725D01*
X0205396Y0030713D01*
X0205237Y0030705D01*
X0205079Y0030701D01*
X0204921Y0030701D01*
X0204763Y0030705D01*
X0204604Y0030713D01*
X0204447Y0030725D01*
X0204289Y0030741D01*
X0204132Y0030761D01*
X0203976Y0030785D01*
X0203820Y0030813D01*
X0203665Y0030844D01*
X0203510Y0030880D01*
X0203357Y0030919D01*
X0203205Y0030962D01*
X0203054Y0031009D01*
X0202904Y0031060D01*
X0202755Y0031115D01*
X0202608Y0031173D01*
X0202462Y0031235D01*
X0202318Y0031300D01*
X0202176Y0031370D01*
X0202035Y0031442D01*
X0201896Y0031519D01*
X0201760Y0031598D01*
X0201625Y0031682D01*
X0201492Y0031768D01*
X0201362Y0031858D01*
X0201234Y0031951D01*
X0201108Y0032047D01*
X0200985Y0032147D01*
X0200864Y0032249D01*
X0200746Y0032354D01*
X0200631Y0032463D01*
X0200518Y0032574D01*
X0200408Y0032688D01*
X0200301Y0032805D01*
X0200197Y0032924D01*
X0200096Y0033046D01*
X0199999Y0033171D01*
X0199904Y0033298D01*
X0199813Y0033427D01*
X0199724Y0033558D01*
X0199640Y0033692D01*
X0199558Y0033828D01*
X0199480Y0033965D01*
X0199406Y0034105D01*
X0199335Y0034247D01*
X0199267Y0034390D01*
X0199203Y0034535D01*
X0199143Y0034681D01*
X0199087Y0034829D01*
X0199034Y0034978D01*
X0198985Y0035129D01*
X0198940Y0035281D01*
X0198899Y0035434D01*
X0198861Y0035587D01*
X0198828Y0035742D01*
X0198798Y0035898D01*
X0198772Y0036054D01*
X0198751Y0036211D01*
X0198733Y0036368D01*
X0198719Y0036526D01*
X0198709Y0036684D01*
X0198703Y0036842D01*
X0198701Y0037000D01*
X0411701Y0037000D02*
X0411703Y0037158D01*
X0411709Y0037316D01*
X0411719Y0037474D01*
X0411733Y0037632D01*
X0411751Y0037789D01*
X0411772Y0037946D01*
X0411798Y0038102D01*
X0411828Y0038258D01*
X0411861Y0038413D01*
X0411899Y0038566D01*
X0411940Y0038719D01*
X0411985Y0038871D01*
X0412034Y0039022D01*
X0412087Y0039171D01*
X0412143Y0039319D01*
X0412203Y0039465D01*
X0412267Y0039610D01*
X0412335Y0039753D01*
X0412406Y0039895D01*
X0412480Y0040035D01*
X0412558Y0040172D01*
X0412640Y0040308D01*
X0412724Y0040442D01*
X0412813Y0040573D01*
X0412904Y0040702D01*
X0412999Y0040829D01*
X0413096Y0040954D01*
X0413197Y0041076D01*
X0413301Y0041195D01*
X0413408Y0041312D01*
X0413518Y0041426D01*
X0413631Y0041537D01*
X0413746Y0041646D01*
X0413864Y0041751D01*
X0413985Y0041853D01*
X0414108Y0041953D01*
X0414234Y0042049D01*
X0414362Y0042142D01*
X0414492Y0042232D01*
X0414625Y0042318D01*
X0414760Y0042402D01*
X0414896Y0042481D01*
X0415035Y0042558D01*
X0415176Y0042630D01*
X0415318Y0042700D01*
X0415462Y0042765D01*
X0415608Y0042827D01*
X0415755Y0042885D01*
X0415904Y0042940D01*
X0416054Y0042991D01*
X0416205Y0043038D01*
X0416357Y0043081D01*
X0416510Y0043120D01*
X0416665Y0043156D01*
X0416820Y0043187D01*
X0416976Y0043215D01*
X0417132Y0043239D01*
X0417289Y0043259D01*
X0417447Y0043275D01*
X0417604Y0043287D01*
X0417763Y0043295D01*
X0417921Y0043299D01*
X0418079Y0043299D01*
X0418237Y0043295D01*
X0418396Y0043287D01*
X0418553Y0043275D01*
X0418711Y0043259D01*
X0418868Y0043239D01*
X0419024Y0043215D01*
X0419180Y0043187D01*
X0419335Y0043156D01*
X0419490Y0043120D01*
X0419643Y0043081D01*
X0419795Y0043038D01*
X0419946Y0042991D01*
X0420096Y0042940D01*
X0420245Y0042885D01*
X0420392Y0042827D01*
X0420538Y0042765D01*
X0420682Y0042700D01*
X0420824Y0042630D01*
X0420965Y0042558D01*
X0421104Y0042481D01*
X0421240Y0042402D01*
X0421375Y0042318D01*
X0421508Y0042232D01*
X0421638Y0042142D01*
X0421766Y0042049D01*
X0421892Y0041953D01*
X0422015Y0041853D01*
X0422136Y0041751D01*
X0422254Y0041646D01*
X0422369Y0041537D01*
X0422482Y0041426D01*
X0422592Y0041312D01*
X0422699Y0041195D01*
X0422803Y0041076D01*
X0422904Y0040954D01*
X0423001Y0040829D01*
X0423096Y0040702D01*
X0423187Y0040573D01*
X0423276Y0040442D01*
X0423360Y0040308D01*
X0423442Y0040172D01*
X0423520Y0040035D01*
X0423594Y0039895D01*
X0423665Y0039753D01*
X0423733Y0039610D01*
X0423797Y0039465D01*
X0423857Y0039319D01*
X0423913Y0039171D01*
X0423966Y0039022D01*
X0424015Y0038871D01*
X0424060Y0038719D01*
X0424101Y0038566D01*
X0424139Y0038413D01*
X0424172Y0038258D01*
X0424202Y0038102D01*
X0424228Y0037946D01*
X0424249Y0037789D01*
X0424267Y0037632D01*
X0424281Y0037474D01*
X0424291Y0037316D01*
X0424297Y0037158D01*
X0424299Y0037000D01*
X0424297Y0036842D01*
X0424291Y0036684D01*
X0424281Y0036526D01*
X0424267Y0036368D01*
X0424249Y0036211D01*
X0424228Y0036054D01*
X0424202Y0035898D01*
X0424172Y0035742D01*
X0424139Y0035587D01*
X0424101Y0035434D01*
X0424060Y0035281D01*
X0424015Y0035129D01*
X0423966Y0034978D01*
X0423913Y0034829D01*
X0423857Y0034681D01*
X0423797Y0034535D01*
X0423733Y0034390D01*
X0423665Y0034247D01*
X0423594Y0034105D01*
X0423520Y0033965D01*
X0423442Y0033828D01*
X0423360Y0033692D01*
X0423276Y0033558D01*
X0423187Y0033427D01*
X0423096Y0033298D01*
X0423001Y0033171D01*
X0422904Y0033046D01*
X0422803Y0032924D01*
X0422699Y0032805D01*
X0422592Y0032688D01*
X0422482Y0032574D01*
X0422369Y0032463D01*
X0422254Y0032354D01*
X0422136Y0032249D01*
X0422015Y0032147D01*
X0421892Y0032047D01*
X0421766Y0031951D01*
X0421638Y0031858D01*
X0421508Y0031768D01*
X0421375Y0031682D01*
X0421240Y0031598D01*
X0421104Y0031519D01*
X0420965Y0031442D01*
X0420824Y0031370D01*
X0420682Y0031300D01*
X0420538Y0031235D01*
X0420392Y0031173D01*
X0420245Y0031115D01*
X0420096Y0031060D01*
X0419946Y0031009D01*
X0419795Y0030962D01*
X0419643Y0030919D01*
X0419490Y0030880D01*
X0419335Y0030844D01*
X0419180Y0030813D01*
X0419024Y0030785D01*
X0418868Y0030761D01*
X0418711Y0030741D01*
X0418553Y0030725D01*
X0418396Y0030713D01*
X0418237Y0030705D01*
X0418079Y0030701D01*
X0417921Y0030701D01*
X0417763Y0030705D01*
X0417604Y0030713D01*
X0417447Y0030725D01*
X0417289Y0030741D01*
X0417132Y0030761D01*
X0416976Y0030785D01*
X0416820Y0030813D01*
X0416665Y0030844D01*
X0416510Y0030880D01*
X0416357Y0030919D01*
X0416205Y0030962D01*
X0416054Y0031009D01*
X0415904Y0031060D01*
X0415755Y0031115D01*
X0415608Y0031173D01*
X0415462Y0031235D01*
X0415318Y0031300D01*
X0415176Y0031370D01*
X0415035Y0031442D01*
X0414896Y0031519D01*
X0414760Y0031598D01*
X0414625Y0031682D01*
X0414492Y0031768D01*
X0414362Y0031858D01*
X0414234Y0031951D01*
X0414108Y0032047D01*
X0413985Y0032147D01*
X0413864Y0032249D01*
X0413746Y0032354D01*
X0413631Y0032463D01*
X0413518Y0032574D01*
X0413408Y0032688D01*
X0413301Y0032805D01*
X0413197Y0032924D01*
X0413096Y0033046D01*
X0412999Y0033171D01*
X0412904Y0033298D01*
X0412813Y0033427D01*
X0412724Y0033558D01*
X0412640Y0033692D01*
X0412558Y0033828D01*
X0412480Y0033965D01*
X0412406Y0034105D01*
X0412335Y0034247D01*
X0412267Y0034390D01*
X0412203Y0034535D01*
X0412143Y0034681D01*
X0412087Y0034829D01*
X0412034Y0034978D01*
X0411985Y0035129D01*
X0411940Y0035281D01*
X0411899Y0035434D01*
X0411861Y0035587D01*
X0411828Y0035742D01*
X0411798Y0035898D01*
X0411772Y0036054D01*
X0411751Y0036211D01*
X0411733Y0036368D01*
X0411719Y0036526D01*
X0411709Y0036684D01*
X0411703Y0036842D01*
X0411701Y0037000D01*
X0586701Y0221000D02*
X0586703Y0221158D01*
X0586709Y0221316D01*
X0586719Y0221474D01*
X0586733Y0221632D01*
X0586751Y0221789D01*
X0586772Y0221946D01*
X0586798Y0222102D01*
X0586828Y0222258D01*
X0586861Y0222413D01*
X0586899Y0222566D01*
X0586940Y0222719D01*
X0586985Y0222871D01*
X0587034Y0223022D01*
X0587087Y0223171D01*
X0587143Y0223319D01*
X0587203Y0223465D01*
X0587267Y0223610D01*
X0587335Y0223753D01*
X0587406Y0223895D01*
X0587480Y0224035D01*
X0587558Y0224172D01*
X0587640Y0224308D01*
X0587724Y0224442D01*
X0587813Y0224573D01*
X0587904Y0224702D01*
X0587999Y0224829D01*
X0588096Y0224954D01*
X0588197Y0225076D01*
X0588301Y0225195D01*
X0588408Y0225312D01*
X0588518Y0225426D01*
X0588631Y0225537D01*
X0588746Y0225646D01*
X0588864Y0225751D01*
X0588985Y0225853D01*
X0589108Y0225953D01*
X0589234Y0226049D01*
X0589362Y0226142D01*
X0589492Y0226232D01*
X0589625Y0226318D01*
X0589760Y0226402D01*
X0589896Y0226481D01*
X0590035Y0226558D01*
X0590176Y0226630D01*
X0590318Y0226700D01*
X0590462Y0226765D01*
X0590608Y0226827D01*
X0590755Y0226885D01*
X0590904Y0226940D01*
X0591054Y0226991D01*
X0591205Y0227038D01*
X0591357Y0227081D01*
X0591510Y0227120D01*
X0591665Y0227156D01*
X0591820Y0227187D01*
X0591976Y0227215D01*
X0592132Y0227239D01*
X0592289Y0227259D01*
X0592447Y0227275D01*
X0592604Y0227287D01*
X0592763Y0227295D01*
X0592921Y0227299D01*
X0593079Y0227299D01*
X0593237Y0227295D01*
X0593396Y0227287D01*
X0593553Y0227275D01*
X0593711Y0227259D01*
X0593868Y0227239D01*
X0594024Y0227215D01*
X0594180Y0227187D01*
X0594335Y0227156D01*
X0594490Y0227120D01*
X0594643Y0227081D01*
X0594795Y0227038D01*
X0594946Y0226991D01*
X0595096Y0226940D01*
X0595245Y0226885D01*
X0595392Y0226827D01*
X0595538Y0226765D01*
X0595682Y0226700D01*
X0595824Y0226630D01*
X0595965Y0226558D01*
X0596104Y0226481D01*
X0596240Y0226402D01*
X0596375Y0226318D01*
X0596508Y0226232D01*
X0596638Y0226142D01*
X0596766Y0226049D01*
X0596892Y0225953D01*
X0597015Y0225853D01*
X0597136Y0225751D01*
X0597254Y0225646D01*
X0597369Y0225537D01*
X0597482Y0225426D01*
X0597592Y0225312D01*
X0597699Y0225195D01*
X0597803Y0225076D01*
X0597904Y0224954D01*
X0598001Y0224829D01*
X0598096Y0224702D01*
X0598187Y0224573D01*
X0598276Y0224442D01*
X0598360Y0224308D01*
X0598442Y0224172D01*
X0598520Y0224035D01*
X0598594Y0223895D01*
X0598665Y0223753D01*
X0598733Y0223610D01*
X0598797Y0223465D01*
X0598857Y0223319D01*
X0598913Y0223171D01*
X0598966Y0223022D01*
X0599015Y0222871D01*
X0599060Y0222719D01*
X0599101Y0222566D01*
X0599139Y0222413D01*
X0599172Y0222258D01*
X0599202Y0222102D01*
X0599228Y0221946D01*
X0599249Y0221789D01*
X0599267Y0221632D01*
X0599281Y0221474D01*
X0599291Y0221316D01*
X0599297Y0221158D01*
X0599299Y0221000D01*
X0599297Y0220842D01*
X0599291Y0220684D01*
X0599281Y0220526D01*
X0599267Y0220368D01*
X0599249Y0220211D01*
X0599228Y0220054D01*
X0599202Y0219898D01*
X0599172Y0219742D01*
X0599139Y0219587D01*
X0599101Y0219434D01*
X0599060Y0219281D01*
X0599015Y0219129D01*
X0598966Y0218978D01*
X0598913Y0218829D01*
X0598857Y0218681D01*
X0598797Y0218535D01*
X0598733Y0218390D01*
X0598665Y0218247D01*
X0598594Y0218105D01*
X0598520Y0217965D01*
X0598442Y0217828D01*
X0598360Y0217692D01*
X0598276Y0217558D01*
X0598187Y0217427D01*
X0598096Y0217298D01*
X0598001Y0217171D01*
X0597904Y0217046D01*
X0597803Y0216924D01*
X0597699Y0216805D01*
X0597592Y0216688D01*
X0597482Y0216574D01*
X0597369Y0216463D01*
X0597254Y0216354D01*
X0597136Y0216249D01*
X0597015Y0216147D01*
X0596892Y0216047D01*
X0596766Y0215951D01*
X0596638Y0215858D01*
X0596508Y0215768D01*
X0596375Y0215682D01*
X0596240Y0215598D01*
X0596104Y0215519D01*
X0595965Y0215442D01*
X0595824Y0215370D01*
X0595682Y0215300D01*
X0595538Y0215235D01*
X0595392Y0215173D01*
X0595245Y0215115D01*
X0595096Y0215060D01*
X0594946Y0215009D01*
X0594795Y0214962D01*
X0594643Y0214919D01*
X0594490Y0214880D01*
X0594335Y0214844D01*
X0594180Y0214813D01*
X0594024Y0214785D01*
X0593868Y0214761D01*
X0593711Y0214741D01*
X0593553Y0214725D01*
X0593396Y0214713D01*
X0593237Y0214705D01*
X0593079Y0214701D01*
X0592921Y0214701D01*
X0592763Y0214705D01*
X0592604Y0214713D01*
X0592447Y0214725D01*
X0592289Y0214741D01*
X0592132Y0214761D01*
X0591976Y0214785D01*
X0591820Y0214813D01*
X0591665Y0214844D01*
X0591510Y0214880D01*
X0591357Y0214919D01*
X0591205Y0214962D01*
X0591054Y0215009D01*
X0590904Y0215060D01*
X0590755Y0215115D01*
X0590608Y0215173D01*
X0590462Y0215235D01*
X0590318Y0215300D01*
X0590176Y0215370D01*
X0590035Y0215442D01*
X0589896Y0215519D01*
X0589760Y0215598D01*
X0589625Y0215682D01*
X0589492Y0215768D01*
X0589362Y0215858D01*
X0589234Y0215951D01*
X0589108Y0216047D01*
X0588985Y0216147D01*
X0588864Y0216249D01*
X0588746Y0216354D01*
X0588631Y0216463D01*
X0588518Y0216574D01*
X0588408Y0216688D01*
X0588301Y0216805D01*
X0588197Y0216924D01*
X0588096Y0217046D01*
X0587999Y0217171D01*
X0587904Y0217298D01*
X0587813Y0217427D01*
X0587724Y0217558D01*
X0587640Y0217692D01*
X0587558Y0217828D01*
X0587480Y0217965D01*
X0587406Y0218105D01*
X0587335Y0218247D01*
X0587267Y0218390D01*
X0587203Y0218535D01*
X0587143Y0218681D01*
X0587087Y0218829D01*
X0587034Y0218978D01*
X0586985Y0219129D01*
X0586940Y0219281D01*
X0586899Y0219434D01*
X0586861Y0219587D01*
X0586828Y0219742D01*
X0586798Y0219898D01*
X0586772Y0220054D01*
X0586751Y0220211D01*
X0586733Y0220368D01*
X0586719Y0220526D01*
X0586709Y0220684D01*
X0586703Y0220842D01*
X0586701Y0221000D01*
X0021701Y0221000D02*
X0021703Y0221158D01*
X0021709Y0221316D01*
X0021719Y0221474D01*
X0021733Y0221632D01*
X0021751Y0221789D01*
X0021772Y0221946D01*
X0021798Y0222102D01*
X0021828Y0222258D01*
X0021861Y0222413D01*
X0021899Y0222566D01*
X0021940Y0222719D01*
X0021985Y0222871D01*
X0022034Y0223022D01*
X0022087Y0223171D01*
X0022143Y0223319D01*
X0022203Y0223465D01*
X0022267Y0223610D01*
X0022335Y0223753D01*
X0022406Y0223895D01*
X0022480Y0224035D01*
X0022558Y0224172D01*
X0022640Y0224308D01*
X0022724Y0224442D01*
X0022813Y0224573D01*
X0022904Y0224702D01*
X0022999Y0224829D01*
X0023096Y0224954D01*
X0023197Y0225076D01*
X0023301Y0225195D01*
X0023408Y0225312D01*
X0023518Y0225426D01*
X0023631Y0225537D01*
X0023746Y0225646D01*
X0023864Y0225751D01*
X0023985Y0225853D01*
X0024108Y0225953D01*
X0024234Y0226049D01*
X0024362Y0226142D01*
X0024492Y0226232D01*
X0024625Y0226318D01*
X0024760Y0226402D01*
X0024896Y0226481D01*
X0025035Y0226558D01*
X0025176Y0226630D01*
X0025318Y0226700D01*
X0025462Y0226765D01*
X0025608Y0226827D01*
X0025755Y0226885D01*
X0025904Y0226940D01*
X0026054Y0226991D01*
X0026205Y0227038D01*
X0026357Y0227081D01*
X0026510Y0227120D01*
X0026665Y0227156D01*
X0026820Y0227187D01*
X0026976Y0227215D01*
X0027132Y0227239D01*
X0027289Y0227259D01*
X0027447Y0227275D01*
X0027604Y0227287D01*
X0027763Y0227295D01*
X0027921Y0227299D01*
X0028079Y0227299D01*
X0028237Y0227295D01*
X0028396Y0227287D01*
X0028553Y0227275D01*
X0028711Y0227259D01*
X0028868Y0227239D01*
X0029024Y0227215D01*
X0029180Y0227187D01*
X0029335Y0227156D01*
X0029490Y0227120D01*
X0029643Y0227081D01*
X0029795Y0227038D01*
X0029946Y0226991D01*
X0030096Y0226940D01*
X0030245Y0226885D01*
X0030392Y0226827D01*
X0030538Y0226765D01*
X0030682Y0226700D01*
X0030824Y0226630D01*
X0030965Y0226558D01*
X0031104Y0226481D01*
X0031240Y0226402D01*
X0031375Y0226318D01*
X0031508Y0226232D01*
X0031638Y0226142D01*
X0031766Y0226049D01*
X0031892Y0225953D01*
X0032015Y0225853D01*
X0032136Y0225751D01*
X0032254Y0225646D01*
X0032369Y0225537D01*
X0032482Y0225426D01*
X0032592Y0225312D01*
X0032699Y0225195D01*
X0032803Y0225076D01*
X0032904Y0224954D01*
X0033001Y0224829D01*
X0033096Y0224702D01*
X0033187Y0224573D01*
X0033276Y0224442D01*
X0033360Y0224308D01*
X0033442Y0224172D01*
X0033520Y0224035D01*
X0033594Y0223895D01*
X0033665Y0223753D01*
X0033733Y0223610D01*
X0033797Y0223465D01*
X0033857Y0223319D01*
X0033913Y0223171D01*
X0033966Y0223022D01*
X0034015Y0222871D01*
X0034060Y0222719D01*
X0034101Y0222566D01*
X0034139Y0222413D01*
X0034172Y0222258D01*
X0034202Y0222102D01*
X0034228Y0221946D01*
X0034249Y0221789D01*
X0034267Y0221632D01*
X0034281Y0221474D01*
X0034291Y0221316D01*
X0034297Y0221158D01*
X0034299Y0221000D01*
X0034297Y0220842D01*
X0034291Y0220684D01*
X0034281Y0220526D01*
X0034267Y0220368D01*
X0034249Y0220211D01*
X0034228Y0220054D01*
X0034202Y0219898D01*
X0034172Y0219742D01*
X0034139Y0219587D01*
X0034101Y0219434D01*
X0034060Y0219281D01*
X0034015Y0219129D01*
X0033966Y0218978D01*
X0033913Y0218829D01*
X0033857Y0218681D01*
X0033797Y0218535D01*
X0033733Y0218390D01*
X0033665Y0218247D01*
X0033594Y0218105D01*
X0033520Y0217965D01*
X0033442Y0217828D01*
X0033360Y0217692D01*
X0033276Y0217558D01*
X0033187Y0217427D01*
X0033096Y0217298D01*
X0033001Y0217171D01*
X0032904Y0217046D01*
X0032803Y0216924D01*
X0032699Y0216805D01*
X0032592Y0216688D01*
X0032482Y0216574D01*
X0032369Y0216463D01*
X0032254Y0216354D01*
X0032136Y0216249D01*
X0032015Y0216147D01*
X0031892Y0216047D01*
X0031766Y0215951D01*
X0031638Y0215858D01*
X0031508Y0215768D01*
X0031375Y0215682D01*
X0031240Y0215598D01*
X0031104Y0215519D01*
X0030965Y0215442D01*
X0030824Y0215370D01*
X0030682Y0215300D01*
X0030538Y0215235D01*
X0030392Y0215173D01*
X0030245Y0215115D01*
X0030096Y0215060D01*
X0029946Y0215009D01*
X0029795Y0214962D01*
X0029643Y0214919D01*
X0029490Y0214880D01*
X0029335Y0214844D01*
X0029180Y0214813D01*
X0029024Y0214785D01*
X0028868Y0214761D01*
X0028711Y0214741D01*
X0028553Y0214725D01*
X0028396Y0214713D01*
X0028237Y0214705D01*
X0028079Y0214701D01*
X0027921Y0214701D01*
X0027763Y0214705D01*
X0027604Y0214713D01*
X0027447Y0214725D01*
X0027289Y0214741D01*
X0027132Y0214761D01*
X0026976Y0214785D01*
X0026820Y0214813D01*
X0026665Y0214844D01*
X0026510Y0214880D01*
X0026357Y0214919D01*
X0026205Y0214962D01*
X0026054Y0215009D01*
X0025904Y0215060D01*
X0025755Y0215115D01*
X0025608Y0215173D01*
X0025462Y0215235D01*
X0025318Y0215300D01*
X0025176Y0215370D01*
X0025035Y0215442D01*
X0024896Y0215519D01*
X0024760Y0215598D01*
X0024625Y0215682D01*
X0024492Y0215768D01*
X0024362Y0215858D01*
X0024234Y0215951D01*
X0024108Y0216047D01*
X0023985Y0216147D01*
X0023864Y0216249D01*
X0023746Y0216354D01*
X0023631Y0216463D01*
X0023518Y0216574D01*
X0023408Y0216688D01*
X0023301Y0216805D01*
X0023197Y0216924D01*
X0023096Y0217046D01*
X0022999Y0217171D01*
X0022904Y0217298D01*
X0022813Y0217427D01*
X0022724Y0217558D01*
X0022640Y0217692D01*
X0022558Y0217828D01*
X0022480Y0217965D01*
X0022406Y0218105D01*
X0022335Y0218247D01*
X0022267Y0218390D01*
X0022203Y0218535D01*
X0022143Y0218681D01*
X0022087Y0218829D01*
X0022034Y0218978D01*
X0021985Y0219129D01*
X0021940Y0219281D01*
X0021899Y0219434D01*
X0021861Y0219587D01*
X0021828Y0219742D01*
X0021798Y0219898D01*
X0021772Y0220054D01*
X0021751Y0220211D01*
X0021733Y0220368D01*
X0021719Y0220526D01*
X0021709Y0220684D01*
X0021703Y0220842D01*
X0021701Y0221000D01*
D11*
X0599000Y0145000D03*
D12*
X0535500Y0215000D03*
D13*
X0311500Y0070000D03*
D14*
X0025500Y0180000D03*
D15*
X0021000Y0122000D03*
D16*
X0458094Y0204992D03*
X0479354Y0204992D03*
D17*
X0362000Y0209488D03*
X0362000Y0220512D03*
X0137528Y0130630D03*
X0137528Y0119606D03*
X0083220Y0147890D03*
X0083220Y0158913D03*
D18*
X0126201Y0220328D03*
D19*
X0126201Y0190328D03*
D20*
X0458717Y0179189D03*
X0472890Y0179189D03*
D21*
X0253409Y0178992D03*
X0242386Y0178992D03*
D22*
X0100819Y0162362D03*
X0100819Y0146220D03*
D23*
X0200435Y0077350D03*
X0210277Y0077350D03*
X0210260Y0064291D03*
X0200417Y0064291D03*
X0412874Y0064291D03*
X0422717Y0064291D03*
X0422677Y0077929D03*
X0412835Y0077929D03*
D24*
X0484283Y0115315D03*
X0484283Y0118465D03*
X0484283Y0121614D03*
X0484283Y0124764D03*
X0484283Y0127913D03*
X0484283Y0131063D03*
X0484283Y0134213D03*
X0484283Y0137362D03*
X0484283Y0140512D03*
X0484283Y0143661D03*
X0484283Y0146811D03*
X0533102Y0146811D03*
X0533102Y0143661D03*
X0533102Y0140512D03*
X0533102Y0137362D03*
X0533102Y0134213D03*
X0533102Y0131063D03*
X0533102Y0127913D03*
X0533102Y0124764D03*
X0533102Y0121614D03*
X0533102Y0118465D03*
X0533102Y0115315D03*
X0262441Y0124976D03*
X0262441Y0128126D03*
X0262441Y0131276D03*
X0262441Y0134425D03*
X0262441Y0137575D03*
X0262441Y0140724D03*
X0262441Y0143874D03*
X0262441Y0147024D03*
X0262441Y0150173D03*
X0262441Y0153323D03*
X0262441Y0156472D03*
X0213622Y0156472D03*
X0213622Y0153323D03*
X0213622Y0150173D03*
X0213622Y0147024D03*
X0213622Y0143874D03*
X0213622Y0140724D03*
X0213622Y0137575D03*
X0213622Y0134425D03*
X0213622Y0131276D03*
X0213622Y0128126D03*
X0213622Y0124976D03*
D25*
X0222283Y0116315D03*
X0225433Y0116315D03*
X0228583Y0116315D03*
X0231732Y0116315D03*
X0234882Y0116315D03*
X0238031Y0116315D03*
X0241181Y0116315D03*
X0244331Y0116315D03*
X0247480Y0116315D03*
X0250630Y0116315D03*
X0253780Y0116315D03*
X0253780Y0165134D03*
X0250630Y0165134D03*
X0247480Y0165134D03*
X0244331Y0165134D03*
X0241181Y0165134D03*
X0238031Y0165134D03*
X0234882Y0165134D03*
X0231732Y0165134D03*
X0228583Y0165134D03*
X0225433Y0165134D03*
X0222283Y0165134D03*
X0492945Y0155472D03*
X0496094Y0155472D03*
X0499244Y0155472D03*
X0502394Y0155472D03*
X0505543Y0155472D03*
X0508693Y0155472D03*
X0511843Y0155472D03*
X0514992Y0155472D03*
X0518142Y0155472D03*
X0521291Y0155472D03*
X0524441Y0155472D03*
X0524441Y0106654D03*
X0521291Y0106654D03*
X0518142Y0106654D03*
X0514992Y0106654D03*
X0511843Y0106654D03*
X0508693Y0106654D03*
X0505543Y0106654D03*
X0502394Y0106654D03*
X0499244Y0106654D03*
X0496094Y0106654D03*
X0492945Y0106654D03*
D26*
X0173075Y0133976D03*
X0168075Y0133976D03*
X0163075Y0133976D03*
X0158075Y0133976D03*
X0158075Y0154449D03*
X0163075Y0154449D03*
X0168075Y0154449D03*
X0173075Y0154449D03*
D27*
X0325197Y0152069D03*
X0328346Y0152069D03*
X0331496Y0152069D03*
X0334646Y0152069D03*
X0337795Y0152069D03*
X0340945Y0152069D03*
X0344094Y0152069D03*
X0347244Y0152069D03*
X0347244Y0185869D03*
X0344094Y0185869D03*
X0340945Y0185869D03*
X0337795Y0185869D03*
X0334646Y0185869D03*
X0331496Y0185869D03*
X0328346Y0185869D03*
X0325197Y0185869D03*
D28*
X0319320Y0179992D03*
X0319320Y0176843D03*
X0319320Y0173693D03*
X0319320Y0170543D03*
X0319320Y0167394D03*
X0319320Y0164244D03*
X0319320Y0161094D03*
X0319320Y0157945D03*
X0353120Y0157945D03*
X0353120Y0161094D03*
X0353120Y0164244D03*
X0353120Y0167394D03*
X0353120Y0170543D03*
X0353120Y0173693D03*
X0353120Y0176843D03*
X0353120Y0179992D03*
D29*
X0547165Y0202342D03*
D30*
X0538189Y0174074D03*
X0556142Y0174074D03*
D31*
X0069492Y0207902D03*
X0069492Y0227587D03*
D32*
X0307701Y0153780D03*
X0308165Y0139622D03*
X0322953Y0135622D03*
X0369811Y0165929D03*
X0372283Y0205370D03*
D33*
X0355268Y0090078D03*
X0366593Y0087287D03*
X0375324Y0079552D03*
X0379460Y0068646D03*
X0378054Y0057067D03*
X0371428Y0047468D03*
X0361100Y0042047D03*
X0349436Y0042047D03*
X0339107Y0047468D03*
X0332481Y0057067D03*
X0331076Y0068646D03*
X0335212Y0079552D03*
X0343943Y0087287D03*
X0292846Y0068646D03*
X0291440Y0057067D03*
X0284814Y0047468D03*
X0274485Y0042047D03*
X0262822Y0042047D03*
X0252493Y0047468D03*
X0245867Y0057067D03*
X0244461Y0068646D03*
X0248598Y0079552D03*
X0257328Y0087287D03*
X0268654Y0090078D03*
X0279979Y0087287D03*
X0288709Y0079552D03*
X0166861Y0068646D03*
X0165456Y0057067D03*
X0158830Y0047468D03*
X0148501Y0042047D03*
X0136837Y0042047D03*
X0126509Y0047468D03*
X0119883Y0057067D03*
X0118477Y0068646D03*
X0122613Y0079552D03*
X0131344Y0087287D03*
X0142669Y0090078D03*
X0153994Y0087287D03*
X0162725Y0079552D03*
X0080247Y0068646D03*
X0078841Y0057067D03*
X0072215Y0047468D03*
X0061887Y0042047D03*
X0050223Y0042047D03*
X0039895Y0047468D03*
X0033269Y0057067D03*
X0031863Y0068646D03*
X0035999Y0079552D03*
X0044730Y0087287D03*
X0056055Y0090078D03*
X0067380Y0087287D03*
X0076111Y0079552D03*
X0457060Y0068646D03*
X0458466Y0057067D03*
X0465092Y0047468D03*
X0475420Y0042047D03*
X0487084Y0042047D03*
X0497412Y0047468D03*
X0504038Y0057067D03*
X0505444Y0068646D03*
X0501308Y0079552D03*
X0492577Y0087287D03*
X0481252Y0090078D03*
X0469927Y0087287D03*
X0461196Y0079552D03*
X0543674Y0068646D03*
X0545080Y0057067D03*
X0551706Y0047468D03*
X0562034Y0042047D03*
X0573698Y0042047D03*
X0584026Y0047468D03*
X0590652Y0057067D03*
X0592058Y0068646D03*
X0587922Y0079552D03*
X0579191Y0087287D03*
X0567866Y0090078D03*
X0556541Y0087287D03*
X0547810Y0079552D03*
D34*
X0215827Y0215919D03*
X0175827Y0225919D03*
X0175827Y0205919D03*
D35*
X0461039Y0229378D03*
X0478071Y0229378D03*
D36*
X0333898Y0207624D03*
X0314898Y0207624D03*
D37*
X0190024Y0147858D03*
X0190024Y0136661D03*
X0117488Y0129976D03*
X0101945Y0129882D03*
X0083309Y0128677D03*
X0083309Y0117480D03*
X0101945Y0118685D03*
X0117488Y0118780D03*
X0115005Y0024242D03*
X0097798Y0024140D03*
X0080985Y0024102D03*
X0080985Y0012905D03*
X0097798Y0012943D03*
X0115005Y0013045D03*
X0168927Y0012873D03*
X0168927Y0024070D03*
X0226693Y0024106D03*
X0243560Y0024076D03*
X0243560Y0012880D03*
X0226693Y0012909D03*
X0291745Y0013108D03*
X0310991Y0013129D03*
X0329209Y0013131D03*
X0329209Y0024328D03*
X0310991Y0024326D03*
X0291745Y0024305D03*
X0387479Y0024387D03*
X0387479Y0013191D03*
X0440014Y0013404D03*
X0456983Y0013437D03*
X0456983Y0024634D03*
X0440014Y0024601D03*
X0508983Y0024531D03*
X0526231Y0024554D03*
X0543051Y0024580D03*
X0543051Y0013383D03*
X0526231Y0013357D03*
X0508983Y0013334D03*
X0593029Y0013458D03*
X0593029Y0024655D03*
X0341654Y0117449D03*
X0341654Y0128646D03*
X0033976Y0024231D03*
X0016877Y0024293D03*
X0016877Y0013096D03*
X0033976Y0013034D03*
D38*
X0158354Y0120797D03*
X0169551Y0120797D03*
X0180346Y0166228D03*
X0191543Y0166228D03*
X0273984Y0170535D03*
X0285181Y0170535D03*
X0268598Y0205000D03*
X0257402Y0205000D03*
X0468150Y0153055D03*
X0479346Y0153055D03*
X0416457Y0111528D03*
X0405260Y0111528D03*
D39*
X0278709Y0110000D03*
X0270047Y0113740D03*
X0278709Y0117480D03*
X0132803Y0152252D03*
X0124142Y0155992D03*
X0124142Y0148512D03*
X0490228Y0166819D03*
X0498890Y0170559D03*
X0490228Y0174299D03*
D40*
X0029765Y0172685D03*
D41*
X0058506Y0163709D03*
X0058506Y0181661D03*
D42*
X0283260Y0197669D03*
X0290740Y0197669D03*
X0287000Y0206331D03*
X0410543Y0131921D03*
X0406803Y0123260D03*
X0414283Y0123260D03*
X0432441Y0124260D03*
X0439921Y0124260D03*
X0436181Y0132921D03*
D43*
X0567983Y0159624D03*
X0567983Y0168724D03*
X0567983Y0177824D03*
X0053052Y0123982D03*
X0053052Y0114882D03*
X0053052Y0105782D03*
D44*
X0028651Y0114882D03*
X0592383Y0168724D03*
D45*
X0320533Y0123104D03*
X0311433Y0123104D03*
X0302333Y0123104D03*
D46*
X0311433Y0098703D03*
D47*
X0401138Y0163337D03*
X0431138Y0163337D03*
D48*
X0421138Y0163337D03*
X0411138Y0163337D03*
X0411138Y0153337D03*
X0421138Y0153337D03*
X0431138Y0153337D03*
X0401138Y0153337D03*
D49*
X0360444Y0078431D02*
X0360444Y0071707D01*
X0360444Y0078431D02*
X0363232Y0078431D01*
X0363232Y0071707D01*
X0360444Y0071707D01*
X0360444Y0073643D02*
X0363232Y0073643D01*
X0363232Y0075579D02*
X0360444Y0075579D01*
X0360444Y0077515D02*
X0363232Y0077515D01*
X0353751Y0078431D02*
X0353751Y0071707D01*
X0353751Y0078431D02*
X0356539Y0078431D01*
X0356539Y0071707D01*
X0353751Y0071707D01*
X0353751Y0073643D02*
X0356539Y0073643D01*
X0356539Y0075579D02*
X0353751Y0075579D01*
X0353751Y0077515D02*
X0356539Y0077515D01*
X0347058Y0078431D02*
X0347058Y0071707D01*
X0347058Y0078431D02*
X0349846Y0078431D01*
X0349846Y0071707D01*
X0347058Y0071707D01*
X0347058Y0073643D02*
X0349846Y0073643D01*
X0349846Y0075579D02*
X0347058Y0075579D01*
X0347058Y0077515D02*
X0349846Y0077515D01*
X0347058Y0059534D02*
X0347058Y0052810D01*
X0347058Y0059534D02*
X0349846Y0059534D01*
X0349846Y0052810D01*
X0347058Y0052810D01*
X0347058Y0054746D02*
X0349846Y0054746D01*
X0349846Y0056682D02*
X0347058Y0056682D01*
X0347058Y0058618D02*
X0349846Y0058618D01*
X0353751Y0059534D02*
X0353751Y0052810D01*
X0353751Y0059534D02*
X0356539Y0059534D01*
X0356539Y0052810D01*
X0353751Y0052810D01*
X0353751Y0054746D02*
X0356539Y0054746D01*
X0356539Y0056682D02*
X0353751Y0056682D01*
X0353751Y0058618D02*
X0356539Y0058618D01*
X0360444Y0059534D02*
X0360444Y0052810D01*
X0360444Y0059534D02*
X0363232Y0059534D01*
X0363232Y0052810D01*
X0360444Y0052810D01*
X0360444Y0054746D02*
X0363232Y0054746D01*
X0363232Y0056682D02*
X0360444Y0056682D01*
X0360444Y0058618D02*
X0363232Y0058618D01*
X0273844Y0059734D02*
X0273844Y0053010D01*
X0273844Y0059734D02*
X0276632Y0059734D01*
X0276632Y0053010D01*
X0273844Y0053010D01*
X0273844Y0054946D02*
X0276632Y0054946D01*
X0276632Y0056882D02*
X0273844Y0056882D01*
X0273844Y0058818D02*
X0276632Y0058818D01*
X0267151Y0059734D02*
X0267151Y0053010D01*
X0267151Y0059734D02*
X0269939Y0059734D01*
X0269939Y0053010D01*
X0267151Y0053010D01*
X0267151Y0054946D02*
X0269939Y0054946D01*
X0269939Y0056882D02*
X0267151Y0056882D01*
X0267151Y0058818D02*
X0269939Y0058818D01*
X0260458Y0059734D02*
X0260458Y0053010D01*
X0260458Y0059734D02*
X0263246Y0059734D01*
X0263246Y0053010D01*
X0260458Y0053010D01*
X0260458Y0054946D02*
X0263246Y0054946D01*
X0263246Y0056882D02*
X0260458Y0056882D01*
X0260458Y0058818D02*
X0263246Y0058818D01*
X0260458Y0071907D02*
X0260458Y0078631D01*
X0263246Y0078631D01*
X0263246Y0071907D01*
X0260458Y0071907D01*
X0260458Y0073843D02*
X0263246Y0073843D01*
X0263246Y0075779D02*
X0260458Y0075779D01*
X0260458Y0077715D02*
X0263246Y0077715D01*
X0267151Y0078631D02*
X0267151Y0071907D01*
X0267151Y0078631D02*
X0269939Y0078631D01*
X0269939Y0071907D01*
X0267151Y0071907D01*
X0267151Y0073843D02*
X0269939Y0073843D01*
X0269939Y0075779D02*
X0267151Y0075779D01*
X0267151Y0077715D02*
X0269939Y0077715D01*
X0273844Y0078631D02*
X0273844Y0071907D01*
X0273844Y0078631D02*
X0276632Y0078631D01*
X0276632Y0071907D01*
X0273844Y0071907D01*
X0273844Y0073843D02*
X0276632Y0073843D01*
X0276632Y0075779D02*
X0273844Y0075779D01*
X0273844Y0077715D02*
X0276632Y0077715D01*
X0148044Y0078831D02*
X0148044Y0072107D01*
X0148044Y0078831D02*
X0150832Y0078831D01*
X0150832Y0072107D01*
X0148044Y0072107D01*
X0148044Y0074043D02*
X0150832Y0074043D01*
X0150832Y0075979D02*
X0148044Y0075979D01*
X0148044Y0077915D02*
X0150832Y0077915D01*
X0141351Y0078831D02*
X0141351Y0072107D01*
X0141351Y0078831D02*
X0144139Y0078831D01*
X0144139Y0072107D01*
X0141351Y0072107D01*
X0141351Y0074043D02*
X0144139Y0074043D01*
X0144139Y0075979D02*
X0141351Y0075979D01*
X0141351Y0077915D02*
X0144139Y0077915D01*
X0134658Y0078831D02*
X0134658Y0072107D01*
X0134658Y0078831D02*
X0137446Y0078831D01*
X0137446Y0072107D01*
X0134658Y0072107D01*
X0134658Y0074043D02*
X0137446Y0074043D01*
X0137446Y0075979D02*
X0134658Y0075979D01*
X0134658Y0077915D02*
X0137446Y0077915D01*
X0134658Y0059934D02*
X0134658Y0053210D01*
X0134658Y0059934D02*
X0137446Y0059934D01*
X0137446Y0053210D01*
X0134658Y0053210D01*
X0134658Y0055146D02*
X0137446Y0055146D01*
X0137446Y0057082D02*
X0134658Y0057082D01*
X0134658Y0059018D02*
X0137446Y0059018D01*
X0141351Y0059934D02*
X0141351Y0053210D01*
X0141351Y0059934D02*
X0144139Y0059934D01*
X0144139Y0053210D01*
X0141351Y0053210D01*
X0141351Y0055146D02*
X0144139Y0055146D01*
X0144139Y0057082D02*
X0141351Y0057082D01*
X0141351Y0059018D02*
X0144139Y0059018D01*
X0148044Y0059934D02*
X0148044Y0053210D01*
X0148044Y0059934D02*
X0150832Y0059934D01*
X0150832Y0053210D01*
X0148044Y0053210D01*
X0148044Y0055146D02*
X0150832Y0055146D01*
X0150832Y0057082D02*
X0148044Y0057082D01*
X0148044Y0059018D02*
X0150832Y0059018D01*
X0061244Y0059934D02*
X0061244Y0053210D01*
X0061244Y0059934D02*
X0064032Y0059934D01*
X0064032Y0053210D01*
X0061244Y0053210D01*
X0061244Y0055146D02*
X0064032Y0055146D01*
X0064032Y0057082D02*
X0061244Y0057082D01*
X0061244Y0059018D02*
X0064032Y0059018D01*
X0054551Y0059934D02*
X0054551Y0053210D01*
X0054551Y0059934D02*
X0057339Y0059934D01*
X0057339Y0053210D01*
X0054551Y0053210D01*
X0054551Y0055146D02*
X0057339Y0055146D01*
X0057339Y0057082D02*
X0054551Y0057082D01*
X0054551Y0059018D02*
X0057339Y0059018D01*
X0047858Y0059934D02*
X0047858Y0053210D01*
X0047858Y0059934D02*
X0050646Y0059934D01*
X0050646Y0053210D01*
X0047858Y0053210D01*
X0047858Y0055146D02*
X0050646Y0055146D01*
X0050646Y0057082D02*
X0047858Y0057082D01*
X0047858Y0059018D02*
X0050646Y0059018D01*
X0047858Y0072107D02*
X0047858Y0078831D01*
X0050646Y0078831D01*
X0050646Y0072107D01*
X0047858Y0072107D01*
X0047858Y0074043D02*
X0050646Y0074043D01*
X0050646Y0075979D02*
X0047858Y0075979D01*
X0047858Y0077915D02*
X0050646Y0077915D01*
X0054551Y0078831D02*
X0054551Y0072107D01*
X0054551Y0078831D02*
X0057339Y0078831D01*
X0057339Y0072107D01*
X0054551Y0072107D01*
X0054551Y0074043D02*
X0057339Y0074043D01*
X0057339Y0075979D02*
X0054551Y0075979D01*
X0054551Y0077915D02*
X0057339Y0077915D01*
X0061244Y0078831D02*
X0061244Y0072107D01*
X0061244Y0078831D02*
X0064032Y0078831D01*
X0064032Y0072107D01*
X0061244Y0072107D01*
X0061244Y0074043D02*
X0064032Y0074043D01*
X0064032Y0075979D02*
X0061244Y0075979D01*
X0061244Y0077915D02*
X0064032Y0077915D01*
X0473058Y0078631D02*
X0473058Y0071907D01*
X0473058Y0078631D02*
X0475846Y0078631D01*
X0475846Y0071907D01*
X0473058Y0071907D01*
X0473058Y0073843D02*
X0475846Y0073843D01*
X0475846Y0075779D02*
X0473058Y0075779D01*
X0473058Y0077715D02*
X0475846Y0077715D01*
X0479751Y0078631D02*
X0479751Y0071907D01*
X0479751Y0078631D02*
X0482539Y0078631D01*
X0482539Y0071907D01*
X0479751Y0071907D01*
X0479751Y0073843D02*
X0482539Y0073843D01*
X0482539Y0075779D02*
X0479751Y0075779D01*
X0479751Y0077715D02*
X0482539Y0077715D01*
X0486444Y0078631D02*
X0486444Y0071907D01*
X0486444Y0078631D02*
X0489232Y0078631D01*
X0489232Y0071907D01*
X0486444Y0071907D01*
X0486444Y0073843D02*
X0489232Y0073843D01*
X0489232Y0075779D02*
X0486444Y0075779D01*
X0486444Y0077715D02*
X0489232Y0077715D01*
X0486444Y0059734D02*
X0486444Y0053010D01*
X0486444Y0059734D02*
X0489232Y0059734D01*
X0489232Y0053010D01*
X0486444Y0053010D01*
X0486444Y0054946D02*
X0489232Y0054946D01*
X0489232Y0056882D02*
X0486444Y0056882D01*
X0486444Y0058818D02*
X0489232Y0058818D01*
X0479751Y0059734D02*
X0479751Y0053010D01*
X0479751Y0059734D02*
X0482539Y0059734D01*
X0482539Y0053010D01*
X0479751Y0053010D01*
X0479751Y0054946D02*
X0482539Y0054946D01*
X0482539Y0056882D02*
X0479751Y0056882D01*
X0479751Y0058818D02*
X0482539Y0058818D01*
X0473058Y0059734D02*
X0473058Y0053010D01*
X0473058Y0059734D02*
X0475846Y0059734D01*
X0475846Y0053010D01*
X0473058Y0053010D01*
X0473058Y0054946D02*
X0475846Y0054946D01*
X0475846Y0056882D02*
X0473058Y0056882D01*
X0473058Y0058818D02*
X0475846Y0058818D01*
X0559858Y0059934D02*
X0559858Y0053210D01*
X0559858Y0059934D02*
X0562646Y0059934D01*
X0562646Y0053210D01*
X0559858Y0053210D01*
X0559858Y0055146D02*
X0562646Y0055146D01*
X0562646Y0057082D02*
X0559858Y0057082D01*
X0559858Y0059018D02*
X0562646Y0059018D01*
X0566551Y0059934D02*
X0566551Y0053210D01*
X0566551Y0059934D02*
X0569339Y0059934D01*
X0569339Y0053210D01*
X0566551Y0053210D01*
X0566551Y0055146D02*
X0569339Y0055146D01*
X0569339Y0057082D02*
X0566551Y0057082D01*
X0566551Y0059018D02*
X0569339Y0059018D01*
X0573244Y0059934D02*
X0573244Y0053210D01*
X0573244Y0059934D02*
X0576032Y0059934D01*
X0576032Y0053210D01*
X0573244Y0053210D01*
X0573244Y0055146D02*
X0576032Y0055146D01*
X0576032Y0057082D02*
X0573244Y0057082D01*
X0573244Y0059018D02*
X0576032Y0059018D01*
X0573244Y0072107D02*
X0573244Y0078831D01*
X0576032Y0078831D01*
X0576032Y0072107D01*
X0573244Y0072107D01*
X0573244Y0074043D02*
X0576032Y0074043D01*
X0576032Y0075979D02*
X0573244Y0075979D01*
X0573244Y0077915D02*
X0576032Y0077915D01*
X0566551Y0078831D02*
X0566551Y0072107D01*
X0566551Y0078831D02*
X0569339Y0078831D01*
X0569339Y0072107D01*
X0566551Y0072107D01*
X0566551Y0074043D02*
X0569339Y0074043D01*
X0569339Y0075979D02*
X0566551Y0075979D01*
X0566551Y0077915D02*
X0569339Y0077915D01*
X0559858Y0078831D02*
X0559858Y0072107D01*
X0559858Y0078831D02*
X0562646Y0078831D01*
X0562646Y0072107D01*
X0559858Y0072107D01*
X0559858Y0074043D02*
X0562646Y0074043D01*
X0562646Y0075979D02*
X0559858Y0075979D01*
X0559858Y0077915D02*
X0562646Y0077915D01*
D50*
X0593571Y0014000D02*
X0593029Y0013458D01*
X0593571Y0014000D02*
X0601000Y0014000D01*
X0302333Y0121333D02*
X0295000Y0114000D01*
X0302333Y0121333D02*
X0302333Y0123104D01*
X0401138Y0163337D02*
X0401138Y0169138D01*
X0405500Y0173500D01*
X0405000Y0174000D01*
X0396000Y0174000D01*
X0383000Y0187000D01*
X0383000Y0216000D01*
X0379000Y0220000D01*
X0364000Y0235000D01*
X0342000Y0235000D01*
X0307000Y0235000D01*
X0300000Y0235000D01*
X0253000Y0235000D01*
X0253000Y0234000D01*
X0252000Y0235000D01*
X0158000Y0235000D01*
X0143328Y0220328D01*
X0126201Y0220328D01*
X0108328Y0220328D01*
X0079000Y0191000D01*
X0067844Y0191000D01*
X0058506Y0181661D01*
X0048000Y0171156D01*
X0048000Y0156000D01*
X0053052Y0150948D01*
X0053052Y0123982D01*
X0100819Y0162362D02*
X0100819Y0172181D01*
X0098000Y0175000D01*
X0034000Y0176920D02*
X0029765Y0172685D01*
X0034000Y0176920D02*
X0034000Y0196000D01*
X0253000Y0225000D02*
X0253000Y0234000D01*
X0405500Y0173500D02*
X0406000Y0174000D01*
X0447000Y0174000D01*
X0452000Y0179000D01*
X0458528Y0179000D01*
X0458717Y0179189D01*
X0458717Y0174283D01*
X0464000Y0169000D01*
X0458717Y0179189D02*
X0458717Y0185283D01*
X0456000Y0188000D01*
X0456000Y0202898D01*
X0458094Y0204992D01*
X0461039Y0207937D01*
X0461039Y0229378D01*
X0478071Y0229378D02*
X0478071Y0206276D01*
X0479354Y0204992D01*
X0479354Y0202646D01*
X0485500Y0196500D01*
X0498000Y0184000D01*
X0524000Y0184000D01*
X0524000Y0176000D01*
X0524000Y0184000D02*
X0546016Y0184000D01*
X0556142Y0174074D01*
X0547556Y0164576D02*
X0538189Y0174074D01*
X0547556Y0164576D02*
X0547556Y0164569D01*
X0548063Y0164062D01*
X0547556Y0164576D01*
X0548063Y0164062D02*
X0552439Y0159624D01*
X0567983Y0159624D01*
X0525024Y0193000D02*
X0502000Y0194000D01*
X0472890Y0186110D02*
X0472890Y0179189D01*
X0472890Y0186110D02*
X0466000Y0193000D01*
D51*
X0466000Y0193000D03*
X0486000Y0185000D03*
X0484000Y0177000D03*
X0464000Y0169000D03*
X0513000Y0170000D03*
X0516000Y0165000D03*
X0524000Y0176000D03*
X0547556Y0164576D03*
X0532000Y0154000D03*
X0546000Y0146000D03*
X0560000Y0145000D03*
X0576000Y0135000D03*
X0567000Y0121000D03*
X0560000Y0115000D03*
X0555000Y0121000D03*
X0535000Y0107000D03*
X0535000Y0097000D03*
X0528000Y0091000D03*
X0547000Y0098000D03*
X0528000Y0082000D03*
X0511000Y0078000D03*
X0529000Y0071000D03*
X0504000Y0091000D03*
X0495200Y0119600D03*
X0506000Y0128000D03*
X0511000Y0134000D03*
X0516000Y0140000D03*
X0497000Y0145000D03*
X0475000Y0124000D03*
X0446000Y0129000D03*
X0427000Y0134000D03*
X0420000Y0129000D03*
X0419000Y0123000D03*
X0398000Y0122000D03*
X0377000Y0104000D03*
X0368000Y0104000D03*
X0385000Y0095000D03*
X0392000Y0099000D03*
X0442000Y0115000D03*
X0443000Y0141000D03*
X0383000Y0157000D03*
X0369000Y0150000D03*
X0360000Y0150000D03*
X0344000Y0161000D03*
X0327000Y0171000D03*
X0327000Y0177000D03*
X0309000Y0170000D03*
X0300000Y0172000D03*
X0273000Y0162000D03*
X0292000Y0151000D03*
X0285000Y0147000D03*
X0279000Y0141000D03*
X0276800Y0131400D03*
X0271000Y0131000D03*
X0252000Y0128000D03*
X0244000Y0128000D03*
X0236000Y0126000D03*
X0229000Y0129600D03*
X0237800Y0133800D03*
X0246000Y0136000D03*
X0241000Y0145000D03*
X0232000Y0149000D03*
X0225000Y0154000D03*
X0181000Y0154000D03*
X0171000Y0165000D03*
X0160000Y0165000D03*
X0121000Y0171000D03*
X0098000Y0175000D03*
X0034000Y0196000D03*
X0109000Y0143000D03*
X0124000Y0138000D03*
X0145000Y0137000D03*
X0195400Y0123000D03*
X0247000Y0106000D03*
X0247000Y0097000D03*
X0247000Y0088000D03*
X0295000Y0114000D03*
X0282000Y0122000D03*
X0262000Y0119000D03*
X0294000Y0133000D03*
X0335000Y0131000D03*
X0344000Y0137000D03*
X0352000Y0135000D03*
X0384000Y0169000D03*
X0373000Y0183000D03*
X0364000Y0182000D03*
X0345000Y0192000D03*
X0275000Y0187000D03*
X0264000Y0179000D03*
X0233000Y0179000D03*
X0276000Y0205000D03*
X0258500Y0220500D03*
X0253000Y0225000D03*
X0307000Y0226000D03*
X0342000Y0227000D03*
X0502000Y0209000D03*
X0502000Y0194000D03*
X0567000Y0185000D03*
X0521000Y0120000D03*
X0601000Y0108000D03*
X0583000Y0029000D03*
X0568000Y0024000D03*
X0553200Y0020000D03*
X0601000Y0014000D03*
X0499000Y0029000D03*
X0481400Y0023000D03*
X0467200Y0019400D03*
X0369000Y0029000D03*
X0355200Y0023000D03*
X0338000Y0019000D03*
X0301000Y0029000D03*
X0283000Y0029000D03*
X0268600Y0022800D03*
X0254000Y0019000D03*
X0157000Y0029000D03*
X0142000Y0023000D03*
X0128000Y0019000D03*
X0095000Y0035000D03*
X0072600Y0029400D03*
X0056000Y0024000D03*
X0047000Y0020000D03*
X0109000Y0073000D03*
X0088000Y0086000D03*
X0116000Y0099000D03*
X0099000Y0109000D03*
X0080000Y0137000D03*
X0017000Y0099000D03*
X0177000Y0086000D03*
X0180000Y0070000D03*
X0188000Y0070000D03*
D52*
X0190000Y0072000D01*
X0190000Y0083000D01*
X0204000Y0097000D01*
X0221000Y0097000D01*
X0225433Y0101433D01*
X0225433Y0116315D01*
X0222283Y0116315D02*
X0222283Y0104283D01*
X0219000Y0101000D01*
X0202000Y0101000D01*
X0180000Y0079000D01*
X0180000Y0070000D01*
X0174000Y0067000D02*
X0174000Y0080000D01*
X0158000Y0096000D01*
X0131000Y0096000D01*
X0122000Y0087000D01*
X0122000Y0080166D01*
X0122613Y0079552D01*
X0109000Y0082000D02*
X0109000Y0073000D01*
X0095000Y0079000D02*
X0095000Y0035000D01*
X0097798Y0024140D02*
X0109000Y0036343D01*
X0109000Y0062000D01*
X0127000Y0064000D01*
X0136052Y0073052D01*
X0136052Y0075469D01*
X0142745Y0075469D02*
X0142745Y0078745D01*
X0146000Y0082000D01*
X0152000Y0082000D01*
X0157000Y0077000D01*
X0157000Y0056000D01*
X0158000Y0055000D01*
X0169000Y0048000D01*
X0169000Y0024143D01*
X0168927Y0024070D01*
X0157000Y0029000D02*
X0157000Y0040000D01*
X0152000Y0047000D01*
X0152000Y0049000D01*
X0154000Y0052000D01*
X0154000Y0061000D01*
X0151000Y0064000D01*
X0146000Y0064000D01*
X0142745Y0060745D01*
X0142745Y0056572D01*
X0149000Y0056134D02*
X0149000Y0053000D01*
X0142748Y0046748D01*
X0142748Y0027252D01*
X0142000Y0023000D01*
X0128000Y0019000D02*
X0128000Y0039000D01*
X0135000Y0050000D01*
X0136052Y0052052D01*
X0136052Y0056572D01*
X0130000Y0057000D02*
X0130000Y0062000D01*
X0136000Y0068000D01*
X0145000Y0068000D01*
X0149438Y0072438D01*
X0149438Y0075469D01*
X0174000Y0067000D02*
X0177000Y0064000D01*
X0191000Y0064000D01*
X0194000Y0067000D01*
X0194000Y0080000D01*
X0207000Y0093000D01*
X0223000Y0093000D01*
X0228583Y0098583D01*
X0228583Y0116315D01*
X0231732Y0116315D02*
X0231732Y0096732D01*
X0224000Y0089000D01*
X0212085Y0089000D01*
X0200435Y0077350D01*
X0180000Y0086000D02*
X0213622Y0119622D01*
X0213622Y0124976D01*
X0213622Y0128126D02*
X0219874Y0128126D01*
X0224000Y0124000D01*
X0234000Y0124000D01*
X0236000Y0126000D01*
X0229000Y0129600D02*
X0227724Y0131276D01*
X0213622Y0131276D01*
X0213622Y0134425D02*
X0225425Y0134425D01*
X0226000Y0135000D01*
X0235000Y0135000D01*
X0237800Y0133800D01*
X0242000Y0139000D02*
X0246000Y0136000D01*
X0242000Y0139000D02*
X0223000Y0139000D01*
X0221575Y0137575D01*
X0213622Y0137575D01*
X0213622Y0140724D02*
X0207724Y0140724D01*
X0205000Y0138000D01*
X0205000Y0118000D01*
X0183000Y0096000D01*
X0165000Y0096000D01*
X0161000Y0100000D01*
X0127000Y0100000D01*
X0109000Y0082000D01*
X0095000Y0079000D02*
X0088000Y0086000D01*
X0068000Y0079000D02*
X0065000Y0082000D01*
X0059000Y0082000D01*
X0055945Y0078945D01*
X0055945Y0075469D01*
X0062638Y0075469D02*
X0062638Y0071638D01*
X0059000Y0068000D01*
X0053000Y0068000D01*
X0049000Y0064000D01*
X0046000Y0064000D01*
X0043000Y0061000D01*
X0043000Y0057000D01*
X0030000Y0047000D01*
X0030000Y0028207D01*
X0033976Y0024231D01*
X0042000Y0025000D02*
X0047000Y0020000D01*
X0042000Y0025000D02*
X0042000Y0039000D01*
X0047000Y0048000D01*
X0049252Y0050252D01*
X0049252Y0056572D01*
X0055945Y0056572D02*
X0055945Y0060945D01*
X0059000Y0064000D01*
X0066000Y0064000D01*
X0068000Y0062000D01*
X0068000Y0052000D01*
X0066000Y0050000D01*
X0066000Y0047000D01*
X0069000Y0040000D01*
X0069000Y0033000D01*
X0072600Y0029400D01*
X0080985Y0024102D02*
X0081000Y0049000D01*
X0071000Y0055000D01*
X0071000Y0070000D01*
X0068000Y0073000D01*
X0068000Y0079000D01*
X0049252Y0075469D02*
X0049252Y0074252D01*
X0039000Y0064000D01*
X0024000Y0062000D01*
X0024000Y0035416D01*
X0016877Y0024293D01*
X0056000Y0024000D02*
X0056039Y0027039D01*
X0056039Y0045039D01*
X0062638Y0051638D01*
X0062638Y0056572D01*
X0035999Y0079552D02*
X0035999Y0090999D01*
X0041000Y0096000D01*
X0105000Y0096000D01*
X0117000Y0108000D01*
X0181000Y0108000D01*
X0195400Y0122400D01*
X0195400Y0123000D01*
X0201000Y0121000D02*
X0180000Y0100000D01*
X0167000Y0100000D01*
X0163000Y0104000D01*
X0123000Y0104000D01*
X0118000Y0099000D01*
X0116000Y0099000D01*
X0114000Y0112000D02*
X0102000Y0100000D01*
X0071000Y0100000D01*
X0065218Y0105782D01*
X0053052Y0105782D01*
X0053052Y0114882D02*
X0028651Y0114882D01*
X0031882Y0116882D01*
X0032000Y0117000D01*
X0028651Y0114882D02*
X0017000Y0105831D01*
X0017000Y0099000D01*
X0053052Y0123982D02*
X0056018Y0123982D01*
X0076000Y0104000D01*
X0093000Y0104000D01*
X0092000Y0105000D01*
X0092000Y0142000D01*
X0086110Y0147890D01*
X0083220Y0147890D01*
X0076000Y0159000D02*
X0072000Y0155000D01*
X0072000Y0120000D01*
X0074520Y0117480D01*
X0083309Y0117480D01*
X0099000Y0109000D02*
X0101945Y0111945D01*
X0101945Y0118685D01*
X0114000Y0112000D02*
X0177000Y0112000D01*
X0197000Y0132000D01*
X0197000Y0142000D01*
X0204000Y0149000D01*
X0204000Y0159000D01*
X0232000Y0187000D01*
X0275000Y0187000D01*
X0283260Y0183740D02*
X0292000Y0175000D01*
X0292000Y0164000D01*
X0302000Y0154000D01*
X0307480Y0154000D01*
X0307701Y0153780D01*
X0307701Y0156701D01*
X0312094Y0161094D01*
X0319320Y0161094D01*
X0319320Y0157945D02*
X0319320Y0150777D01*
X0308165Y0139622D01*
X0298000Y0148000D02*
X0294000Y0144000D01*
X0294000Y0133000D01*
X0298000Y0130000D02*
X0317331Y0130000D01*
X0322953Y0135622D01*
X0325197Y0137866D01*
X0325197Y0152069D01*
X0328346Y0152069D02*
X0328346Y0157346D01*
X0334000Y0163000D01*
X0334000Y0174000D01*
X0331496Y0176504D01*
X0331496Y0185869D01*
X0331496Y0181496D01*
X0327000Y0177000D01*
X0319320Y0173693D02*
X0301693Y0173693D01*
X0300000Y0172000D01*
X0309000Y0170000D02*
X0311606Y0167394D01*
X0319320Y0167394D01*
X0319320Y0170543D02*
X0326543Y0170543D01*
X0327000Y0171000D01*
X0334646Y0179945D02*
X0337795Y0176795D01*
X0340945Y0179945D01*
X0340945Y0185869D01*
X0337795Y0185869D02*
X0337795Y0192795D01*
X0342000Y0197000D01*
X0356000Y0197000D01*
X0362000Y0203000D01*
X0362000Y0209488D01*
X0368402Y0209488D01*
X0372283Y0205370D01*
X0362000Y0220512D02*
X0354000Y0212512D01*
X0354000Y0203000D01*
X0352000Y0201000D01*
X0341000Y0201000D01*
X0334646Y0194646D01*
X0334646Y0185869D01*
X0334646Y0179945D01*
X0337795Y0176795D02*
X0337795Y0152069D01*
X0344094Y0152069D02*
X0344094Y0146094D01*
X0321104Y0123104D01*
X0320533Y0123104D01*
X0311433Y0123104D02*
X0311433Y0098703D01*
X0314433Y0042433D01*
X0301000Y0029000D01*
X0291745Y0024305D02*
X0291745Y0043745D01*
X0292000Y0050000D01*
X0284000Y0055000D01*
X0284000Y0076000D01*
X0278000Y0082000D01*
X0272000Y0082000D01*
X0268545Y0078545D01*
X0268545Y0075269D01*
X0275238Y0075269D02*
X0275238Y0069238D01*
X0274000Y0068000D01*
X0262000Y0068000D01*
X0256000Y0062000D01*
X0256000Y0057000D01*
X0255000Y0056000D01*
X0243000Y0048000D01*
X0243000Y0024636D01*
X0243560Y0024076D01*
X0254000Y0019000D02*
X0254000Y0039000D01*
X0260000Y0048000D01*
X0261852Y0049852D01*
X0261852Y0056372D01*
X0268545Y0056372D02*
X0268545Y0061545D01*
X0271000Y0064000D01*
X0278000Y0064000D01*
X0280000Y0062000D01*
X0280000Y0052000D01*
X0278000Y0049000D01*
X0278000Y0047000D01*
X0283000Y0040000D01*
X0283000Y0029000D01*
X0268614Y0027386D02*
X0268600Y0022800D01*
X0268614Y0027386D02*
X0268614Y0045614D01*
X0275000Y0052000D01*
X0275000Y0056334D01*
X0275238Y0056372D01*
X0261852Y0073852D02*
X0252000Y0064000D01*
X0237000Y0062000D01*
X0237000Y0034413D01*
X0226693Y0024106D01*
X0149438Y0056572D02*
X0149000Y0056134D01*
X0130000Y0057000D02*
X0129000Y0056000D01*
X0115000Y0047000D01*
X0115000Y0024246D01*
X0115005Y0024242D01*
X0248598Y0079552D02*
X0254552Y0079552D01*
X0255000Y0080000D01*
X0262000Y0082000D01*
X0265000Y0083000D01*
X0262000Y0092000D01*
X0253780Y0100220D01*
X0253780Y0116315D01*
X0250630Y0116315D02*
X0250630Y0109630D01*
X0247000Y0106000D01*
X0241181Y0102819D02*
X0241181Y0116315D01*
X0238031Y0116315D02*
X0238031Y0096969D01*
X0247000Y0088000D01*
X0247000Y0097000D02*
X0241181Y0102819D01*
X0270047Y0113740D02*
X0270047Y0120047D01*
X0277000Y0127000D01*
X0277000Y0131200D01*
X0276800Y0131400D01*
X0274000Y0134000D01*
X0274000Y0137000D01*
X0270276Y0140724D01*
X0262441Y0140724D01*
X0262441Y0137575D02*
X0268425Y0137575D01*
X0270000Y0136000D01*
X0270000Y0132000D01*
X0271000Y0131000D01*
X0262441Y0124976D02*
X0262441Y0119441D01*
X0262000Y0119000D01*
X0252000Y0128000D02*
X0247480Y0123480D01*
X0247480Y0116315D01*
X0244331Y0116315D02*
X0244331Y0126669D01*
X0244000Y0128000D01*
X0241000Y0145000D02*
X0239000Y0147000D01*
X0239000Y0152000D01*
X0234882Y0156118D01*
X0234882Y0165134D01*
X0231732Y0165134D02*
X0231732Y0151268D01*
X0232000Y0149000D01*
X0225000Y0154000D02*
X0228583Y0157583D01*
X0228583Y0165134D01*
X0206000Y0166000D02*
X0205772Y0166228D01*
X0244543Y0205000D01*
X0257402Y0205000D01*
X0257402Y0219402D01*
X0258500Y0220500D01*
X0268598Y0205000D02*
X0276000Y0205000D01*
X0277000Y0206000D01*
X0286669Y0206000D01*
X0287000Y0206331D01*
X0283260Y0197669D02*
X0283260Y0183740D01*
X0278008Y0178992D02*
X0285181Y0171819D01*
X0285181Y0170535D01*
X0273984Y0170535D02*
X0273984Y0162984D01*
X0273000Y0162000D01*
X0262441Y0156472D02*
X0294528Y0156472D01*
X0298000Y0153000D01*
X0298000Y0148000D01*
X0292000Y0151000D02*
X0289677Y0153323D01*
X0262441Y0153323D01*
X0262441Y0150173D02*
X0281827Y0150173D01*
X0285000Y0147000D01*
X0279000Y0141000D02*
X0276126Y0143874D01*
X0262441Y0143874D01*
X0262441Y0147024D02*
X0254976Y0147024D01*
X0252024Y0149976D01*
X0252024Y0155024D01*
X0258000Y0161000D01*
X0258000Y0177000D01*
X0256008Y0178992D01*
X0263992Y0178992D01*
X0278008Y0178992D01*
X0264000Y0179000D02*
X0263992Y0178992D01*
X0256008Y0178992D02*
X0253409Y0178992D01*
X0242386Y0178992D02*
X0233008Y0178992D01*
X0233000Y0179000D01*
X0206000Y0166000D02*
X0190024Y0150024D01*
X0190024Y0147858D01*
X0187858Y0147858D01*
X0173976Y0133976D01*
X0173075Y0133976D01*
X0173075Y0139925D01*
X0169000Y0144000D01*
X0161000Y0144000D01*
X0158075Y0146925D01*
X0158075Y0154449D01*
X0163075Y0154449D02*
X0163075Y0161925D01*
X0160000Y0165000D01*
X0168075Y0162075D02*
X0171000Y0165000D01*
X0168075Y0162075D02*
X0168075Y0154449D01*
X0173075Y0154449D02*
X0180551Y0154449D01*
X0181000Y0154000D01*
X0201000Y0140000D02*
X0204874Y0143874D01*
X0213622Y0143874D01*
X0201000Y0140000D02*
X0201000Y0121000D01*
X0190024Y0136661D02*
X0174159Y0120797D01*
X0169551Y0120797D01*
X0168075Y0122273D01*
X0168075Y0133976D01*
X0163075Y0133976D02*
X0163075Y0125517D01*
X0158354Y0120797D01*
X0157164Y0119606D01*
X0146000Y0119606D01*
X0145000Y0120606D01*
X0145000Y0137000D01*
X0137528Y0130630D02*
X0131630Y0130630D01*
X0130000Y0129000D01*
X0130000Y0142654D01*
X0124142Y0148512D01*
X0119992Y0155992D02*
X0116000Y0152000D01*
X0116000Y0139000D01*
X0106882Y0129882D01*
X0101945Y0129882D01*
X0117488Y0129976D02*
X0124000Y0136488D01*
X0124000Y0138000D01*
X0130000Y0129000D02*
X0129000Y0128000D01*
X0129000Y0123000D01*
X0125000Y0119000D01*
X0117709Y0119000D01*
X0117488Y0118780D01*
X0115780Y0118780D01*
X0101000Y0104000D01*
X0093000Y0104000D01*
X0137528Y0119606D02*
X0146000Y0119606D01*
X0156024Y0133976D02*
X0137748Y0152252D01*
X0132803Y0152252D01*
X0152551Y0172000D01*
X0174575Y0172000D01*
X0180346Y0166228D01*
X0191543Y0166228D02*
X0205772Y0166228D01*
X0162000Y0189000D02*
X0162000Y0212092D01*
X0175827Y0225919D01*
X0205827Y0225919D01*
X0215827Y0215919D01*
X0162000Y0189000D02*
X0136000Y0163000D01*
X0129000Y0163000D01*
X0125000Y0159000D01*
X0125000Y0156850D01*
X0124142Y0155992D01*
X0119992Y0155992D01*
X0109000Y0143000D02*
X0105780Y0146220D01*
X0100819Y0146220D01*
X0083309Y0133691D02*
X0080000Y0137000D01*
X0083309Y0133691D02*
X0083309Y0128677D01*
X0083220Y0158913D02*
X0083134Y0159000D01*
X0076000Y0159000D01*
X0071709Y0163709D02*
X0090000Y0182000D01*
X0106000Y0182000D01*
X0117000Y0171000D01*
X0121000Y0171000D01*
X0071709Y0163709D02*
X0058506Y0163709D01*
X0156024Y0133976D02*
X0158075Y0133976D01*
X0177000Y0086000D02*
X0180000Y0086000D01*
X0261852Y0075269D02*
X0261852Y0073852D01*
X0323000Y0061000D02*
X0323000Y0035000D01*
X0312326Y0024326D01*
X0310991Y0024326D01*
X0329000Y0024537D02*
X0329209Y0024328D01*
X0329000Y0024537D02*
X0329000Y0048000D01*
X0342000Y0056000D01*
X0342000Y0062000D01*
X0348000Y0068000D01*
X0359000Y0068000D01*
X0361838Y0070838D01*
X0361838Y0075069D01*
X0355145Y0075069D02*
X0355145Y0079145D01*
X0358000Y0082000D01*
X0364000Y0082000D01*
X0370000Y0076000D01*
X0370000Y0056000D01*
X0371000Y0055000D01*
X0383000Y0047000D01*
X0387479Y0042521D01*
X0387479Y0024387D01*
X0369000Y0029000D02*
X0369000Y0040000D01*
X0365000Y0047000D01*
X0365000Y0050000D01*
X0367000Y0052000D01*
X0367000Y0061000D01*
X0365000Y0063000D01*
X0358000Y0063000D01*
X0355145Y0060145D01*
X0355145Y0056172D01*
X0361838Y0056172D02*
X0362000Y0056009D01*
X0362000Y0052000D01*
X0355268Y0045268D01*
X0355268Y0032732D01*
X0355200Y0023000D01*
X0338000Y0019000D02*
X0338000Y0035000D01*
X0341000Y0039000D01*
X0347000Y0049000D01*
X0348452Y0050452D01*
X0348452Y0056172D01*
X0338000Y0064000D02*
X0348452Y0074452D01*
X0348452Y0075069D01*
X0331076Y0071924D02*
X0331076Y0068646D01*
X0338000Y0064000D02*
X0324000Y0062000D01*
X0323000Y0061000D01*
X0331076Y0071924D02*
X0327000Y0076000D01*
X0327000Y0083000D01*
X0354000Y0110000D01*
X0383000Y0110000D01*
X0385000Y0108000D01*
X0397000Y0108000D01*
X0401000Y0104000D01*
X0440000Y0104000D01*
X0456000Y0120000D01*
X0456000Y0132000D01*
X0467661Y0143661D01*
X0484283Y0143661D01*
X0492000Y0141000D02*
X0492000Y0147000D01*
X0488000Y0151000D01*
X0481402Y0151000D01*
X0479346Y0153055D01*
X0485000Y0159000D02*
X0469000Y0159000D01*
X0467000Y0157000D01*
X0467000Y0153906D01*
X0468150Y0153055D01*
X0466150Y0153150D01*
X0445921Y0132921D01*
X0436181Y0132921D01*
X0436102Y0133000D01*
X0428000Y0133000D01*
X0427000Y0134000D01*
X0435102Y0134000D02*
X0436181Y0132921D01*
X0444661Y0129000D02*
X0439921Y0124260D01*
X0444661Y0129000D02*
X0446000Y0129000D01*
X0460000Y0130000D02*
X0460000Y0118000D01*
X0442000Y0100000D01*
X0399000Y0100000D01*
X0395000Y0104000D01*
X0377000Y0104000D01*
X0368000Y0104000D02*
X0384000Y0088000D01*
X0448000Y0088000D01*
X0461000Y0101000D01*
X0475000Y0101000D01*
X0484283Y0110283D01*
X0484283Y0115315D01*
X0484283Y0118465D02*
X0478535Y0118465D01*
X0475000Y0122000D01*
X0475000Y0124000D01*
X0468000Y0126000D02*
X0468000Y0114000D01*
X0446000Y0092000D01*
X0388000Y0092000D01*
X0385000Y0095000D01*
X0392000Y0099000D02*
X0395000Y0096000D01*
X0444000Y0096000D01*
X0464000Y0116000D01*
X0464000Y0128000D01*
X0473362Y0137362D01*
X0484283Y0137362D01*
X0484283Y0134213D02*
X0476213Y0134213D01*
X0468000Y0126000D01*
X0460000Y0130000D02*
X0470512Y0140512D01*
X0484283Y0140512D01*
X0492000Y0141000D02*
X0494000Y0139000D01*
X0499000Y0139000D01*
X0502394Y0142394D01*
X0502394Y0148606D01*
X0504000Y0147000D01*
X0525000Y0147000D01*
X0532000Y0154000D01*
X0535811Y0146811D02*
X0540000Y0151000D01*
X0570000Y0151000D01*
X0582000Y0139000D01*
X0582000Y0123000D01*
X0547810Y0088810D01*
X0547810Y0079552D01*
X0560957Y0075469D02*
X0561252Y0075469D01*
X0560957Y0075469D02*
X0549323Y0063835D01*
X0549323Y0063819D01*
X0537200Y0061600D01*
X0537200Y0035283D01*
X0526231Y0024554D01*
X0543051Y0024580D02*
X0543000Y0030631D01*
X0543000Y0049000D01*
X0554087Y0055866D01*
X0555000Y0056780D01*
X0555000Y0063000D01*
X0560000Y0068000D01*
X0572000Y0068000D01*
X0574638Y0070638D01*
X0574638Y0075469D01*
X0567945Y0075469D02*
X0567945Y0079945D01*
X0570000Y0082000D01*
X0577000Y0082000D01*
X0583000Y0076000D01*
X0583000Y0055512D01*
X0583646Y0054866D01*
X0593000Y0049000D01*
X0593029Y0048971D01*
X0593029Y0024655D01*
X0583000Y0029000D02*
X0583000Y0039000D01*
X0577000Y0047000D01*
X0577000Y0049000D01*
X0579000Y0051000D01*
X0579000Y0062000D01*
X0577000Y0064000D01*
X0570000Y0064000D01*
X0567945Y0061945D01*
X0567945Y0056572D01*
X0574000Y0055934D02*
X0574000Y0051000D01*
X0567906Y0044906D01*
X0567906Y0034094D01*
X0568000Y0024000D01*
X0553200Y0020000D02*
X0553000Y0039000D01*
X0561000Y0051000D01*
X0561252Y0051252D01*
X0561252Y0056572D01*
X0574000Y0055934D02*
X0574638Y0056572D01*
X0529000Y0071000D02*
X0518142Y0081858D01*
X0518142Y0106654D01*
X0521291Y0106654D02*
X0521291Y0088709D01*
X0528000Y0082000D01*
X0514992Y0081992D02*
X0514992Y0106654D01*
X0512000Y0106496D02*
X0511843Y0106654D01*
X0512000Y0106496D02*
X0512000Y0099000D01*
X0504000Y0091000D01*
X0504000Y0097000D02*
X0463000Y0097000D01*
X0450000Y0084000D01*
X0418000Y0084000D01*
X0412835Y0078835D01*
X0412835Y0077929D01*
X0448000Y0061000D02*
X0448000Y0032587D01*
X0440014Y0024601D01*
X0455983Y0026983D02*
X0456000Y0030000D01*
X0456000Y0048500D01*
X0468500Y0056000D01*
X0469000Y0056500D01*
X0469000Y0063000D01*
X0474000Y0068000D01*
X0485000Y0068000D01*
X0487838Y0070838D01*
X0487838Y0075269D01*
X0481145Y0075269D02*
X0481145Y0079145D01*
X0484000Y0082000D01*
X0491000Y0082000D01*
X0496000Y0077000D01*
X0496000Y0056000D01*
X0509000Y0045000D01*
X0508983Y0044983D01*
X0508983Y0024531D01*
X0499000Y0029000D02*
X0499000Y0037000D01*
X0495000Y0041000D01*
X0491000Y0047000D01*
X0492000Y0050000D01*
X0492000Y0062000D01*
X0490000Y0064000D01*
X0485000Y0064000D01*
X0481145Y0060145D01*
X0481145Y0056372D01*
X0487838Y0056372D02*
X0488000Y0056209D01*
X0488000Y0053000D01*
X0481331Y0046331D01*
X0481331Y0034669D01*
X0481400Y0023000D01*
X0467200Y0019400D02*
X0467000Y0039000D01*
X0473000Y0049000D01*
X0474452Y0050452D01*
X0474452Y0056372D01*
X0464000Y0064000D02*
X0474452Y0074452D01*
X0474452Y0075269D01*
X0464000Y0064000D02*
X0448000Y0061000D01*
X0511000Y0078000D02*
X0514992Y0081992D01*
X0524441Y0094559D02*
X0528000Y0091000D01*
X0524441Y0094559D02*
X0524441Y0106654D01*
X0535000Y0107000D02*
X0541000Y0113000D01*
X0541000Y0117000D01*
X0539535Y0118465D01*
X0533102Y0118465D01*
X0533102Y0121614D02*
X0542386Y0121614D01*
X0545000Y0119000D01*
X0545000Y0107000D01*
X0535000Y0097000D01*
X0547000Y0098000D02*
X0547000Y0103000D01*
X0549000Y0105000D01*
X0549000Y0121000D01*
X0545236Y0124764D01*
X0533102Y0124764D01*
X0533102Y0127913D02*
X0548087Y0127913D01*
X0555000Y0121000D01*
X0561000Y0124000D02*
X0561000Y0116000D01*
X0560000Y0115000D01*
X0567000Y0121000D02*
X0567000Y0125000D01*
X0557787Y0134213D01*
X0533102Y0134213D01*
X0533102Y0137362D02*
X0573000Y0137362D01*
X0575000Y0135362D01*
X0576000Y0135000D01*
X0561000Y0124000D02*
X0553937Y0131063D01*
X0533102Y0131063D01*
X0533102Y0140512D02*
X0555512Y0140512D01*
X0560000Y0145000D01*
X0546000Y0146000D02*
X0543661Y0143661D01*
X0533102Y0143661D01*
X0533102Y0146811D02*
X0535811Y0146811D01*
X0516000Y0140000D02*
X0505000Y0140000D01*
X0496063Y0131063D01*
X0484283Y0131063D01*
X0484370Y0128000D02*
X0484283Y0127913D01*
X0484370Y0128000D02*
X0498000Y0128000D01*
X0504000Y0134000D01*
X0511000Y0134000D01*
X0506000Y0128000D02*
X0502764Y0124764D01*
X0484283Y0124764D01*
X0484283Y0121614D02*
X0493386Y0121614D01*
X0495200Y0119600D01*
X0508693Y0106654D02*
X0508693Y0101693D01*
X0504000Y0097000D01*
X0525685Y0115315D02*
X0521000Y0120000D01*
X0525685Y0115315D02*
X0533102Y0115315D01*
X0497000Y0145000D02*
X0496094Y0145906D01*
X0496094Y0155472D01*
X0492945Y0155472D02*
X0488528Y0155472D01*
X0485000Y0159000D01*
X0498000Y0162000D02*
X0466000Y0162000D01*
X0445000Y0141000D01*
X0443000Y0141000D01*
X0421138Y0149138D02*
X0413000Y0141000D01*
X0369000Y0141000D01*
X0360000Y0150000D01*
X0361055Y0157945D02*
X0369000Y0150000D01*
X0378000Y0153000D02*
X0380000Y0151000D01*
X0399000Y0151000D01*
X0401138Y0153138D01*
X0401138Y0153337D01*
X0384000Y0158000D02*
X0384000Y0169000D01*
X0378000Y0169000D02*
X0378000Y0153000D01*
X0383000Y0157000D02*
X0384000Y0158000D01*
X0369811Y0165929D02*
X0365425Y0170543D01*
X0353120Y0170543D01*
X0353120Y0173693D02*
X0373307Y0173693D01*
X0378000Y0169000D01*
X0366843Y0176843D02*
X0373000Y0183000D01*
X0366843Y0176843D02*
X0353120Y0176843D01*
X0353120Y0179992D02*
X0361992Y0179992D01*
X0364000Y0182000D01*
X0347244Y0185869D02*
X0347244Y0189756D01*
X0345000Y0192000D01*
X0328346Y0185869D02*
X0328346Y0202072D01*
X0333898Y0207624D01*
X0325197Y0197325D02*
X0314898Y0207624D01*
X0298000Y0199000D02*
X0298000Y0217000D01*
X0307000Y0226000D01*
X0307000Y0235000D01*
X0300000Y0235000D02*
X0299000Y0234000D01*
X0342000Y0235000D02*
X0342000Y0227000D01*
X0361512Y0220512D02*
X0362000Y0220512D01*
X0378488Y0220512D01*
X0379000Y0220000D01*
X0325197Y0197325D02*
X0325197Y0185869D01*
X0298000Y0199000D02*
X0296669Y0197669D01*
X0290740Y0197669D01*
X0344000Y0161000D02*
X0347000Y0158000D01*
X0347000Y0152000D01*
X0347069Y0152069D01*
X0347244Y0152069D01*
X0353120Y0157945D02*
X0361055Y0157945D01*
X0344000Y0137000D02*
X0356740Y0124260D01*
X0392260Y0124260D01*
X0394000Y0126000D01*
X0402000Y0126000D01*
X0404740Y0123260D01*
X0406803Y0123260D01*
X0405260Y0114740D02*
X0398000Y0122000D01*
X0405260Y0114740D02*
X0405260Y0111528D01*
X0388472Y0111528D01*
X0382551Y0117449D01*
X0341654Y0117449D01*
X0341654Y0128646D02*
X0341299Y0129000D01*
X0337000Y0129000D01*
X0335000Y0131000D01*
X0339299Y0131000D02*
X0341654Y0128646D01*
X0341654Y0129346D01*
X0352000Y0135000D02*
X0359000Y0128000D01*
X0391000Y0128000D01*
X0400000Y0137000D01*
X0418000Y0137000D01*
X0430740Y0124260D01*
X0432441Y0124260D01*
X0419000Y0123000D02*
X0418740Y0123260D01*
X0414283Y0123260D01*
X0410543Y0117441D02*
X0416457Y0111528D01*
X0438528Y0111528D01*
X0442000Y0115000D01*
X0410543Y0117441D02*
X0410543Y0131921D01*
X0421138Y0149138D02*
X0421138Y0153337D01*
X0464000Y0169000D02*
X0466181Y0166819D01*
X0490228Y0166819D01*
X0498000Y0162000D02*
X0499244Y0160756D01*
X0499244Y0155472D01*
X0499244Y0162244D01*
X0502000Y0165000D01*
X0502000Y0169669D01*
X0498890Y0170559D01*
X0505543Y0169543D02*
X0510000Y0174000D01*
X0517000Y0174000D01*
X0522000Y0169000D01*
X0533315Y0169000D01*
X0538189Y0174074D01*
X0516000Y0165000D02*
X0511843Y0160843D01*
X0511843Y0155472D01*
X0508693Y0155472D02*
X0508693Y0165693D01*
X0513000Y0170000D01*
X0505543Y0169543D02*
X0505543Y0155472D01*
X0502394Y0155472D02*
X0502394Y0148606D01*
X0490228Y0174299D02*
X0490228Y0180772D01*
X0486000Y0185000D01*
X0484000Y0179000D02*
X0479000Y0184000D01*
X0479000Y0190000D01*
X0485500Y0196500D01*
X0502000Y0194000D02*
X0502000Y0209000D01*
X0525024Y0193000D02*
X0534165Y0202142D01*
X0547165Y0202342D01*
X0567000Y0185000D02*
X0567983Y0183383D01*
X0567983Y0177824D01*
X0567983Y0168724D02*
X0592383Y0168724D01*
X0484000Y0177000D02*
X0484000Y0179000D01*
X0298000Y0130000D02*
X0290000Y0122000D01*
X0290000Y0118000D01*
X0282000Y0110000D01*
X0278709Y0110000D01*
X0278709Y0117480D02*
X0278709Y0118709D01*
X0282000Y0122000D01*
X0455983Y0026983D02*
X0456983Y0024634D01*
D53*
X0456983Y0013437D02*
X0440047Y0013437D01*
X0440014Y0013404D01*
X0387692Y0013404D01*
X0387479Y0013191D01*
X0329269Y0013191D01*
X0329209Y0013131D01*
X0310992Y0013131D01*
X0310991Y0013129D01*
X0291766Y0013129D01*
X0291745Y0013108D01*
X0243788Y0013108D01*
X0243560Y0012880D01*
X0226723Y0012880D01*
X0226693Y0012909D01*
X0168963Y0012909D01*
X0168927Y0012873D01*
X0115176Y0012873D01*
X0115005Y0013045D01*
X0097899Y0013045D01*
X0097798Y0012943D01*
X0081024Y0012943D01*
X0080985Y0012905D01*
X0030106Y0012905D01*
X0033976Y0013034D01*
X0020939Y0013034D01*
X0016877Y0013096D01*
X0456983Y0013437D02*
X0457086Y0013334D01*
X0508983Y0013334D01*
X0509006Y0013357D01*
X0526231Y0013357D01*
X0526257Y0013383D01*
X0543051Y0013383D01*
X0543127Y0013458D01*
X0593029Y0013458D01*
D54*
X0601000Y0108000D02*
X0590783Y0118217D01*
X0592383Y0168724D01*
M02*
