%
M48
M72
T01C0.02362
T02C0.03150
T03C0.03200
T04C0.03307
T05C0.04000
T06C0.04400
T07C0.04724
T08C0.06700
T09C0.12598
%
T01
X47000Y20000
X56000Y24000
X72600Y29400
X95000Y35000
X128000Y19000
X142000Y23000
X157000Y29000
X200417Y64291
X210260Y64291
X188000Y70000
X180000Y70000
X200435Y77350
X210277Y77350
X247000Y88000
X247000Y97000
X247000Y106000
X262000Y119000
X252000Y128000
X244000Y128000
X236000Y126000
X229000Y129600
X237800Y133800
X246000Y136000
X241000Y145000
X232000Y149000
X225000Y154000
X265000Y166000
X289000Y162000
X292000Y151000
X285000Y147000
X279000Y141000
X291000Y134000
X275800Y128400
X295000Y114000
X352000Y135000
X360000Y145000
X369000Y150000
X383000Y157000
X384000Y169000
X373000Y183000
X364000Y182000
X349000Y197000
X334000Y202000
X310000Y179000
X327000Y171000
X309000Y170000
X344000Y161000
X319000Y141000
X386000Y134000
X415000Y123000
X426000Y123000
X418000Y134000
X446600Y129200
X471000Y124000
X495200Y119600
X506000Y128000
X511000Y134000
X516000Y140000
X497000Y145000
X514000Y167000
X524000Y176000
X486000Y185000
X484000Y177000
X464000Y169000
X466000Y193000
X502000Y194000
X502000Y209000
X567000Y185000
X560000Y145000
X546000Y146000
X576000Y135000
X567000Y121000
X560000Y115000
X555000Y121000
X535000Y107000
X547000Y98000
X535000Y97000
X528000Y91000
X528000Y82000
X511000Y78000
X529000Y71000
X504000Y91000
X521000Y120000
X601000Y108000
X583000Y29000
X568000Y24000
X553200Y20000
X601000Y14000
X499000Y29000
X481400Y23000
X467200Y19400
X422717Y64291
X412874Y64291
X412835Y77929
X422677Y77929
X385000Y95000
X392000Y99000
X377000Y104000
X368000Y104000
X369000Y29000
X355200Y23000
X338000Y19000
X301000Y29000
X283000Y29000
X268600Y22800
X254000Y19000
X177000Y86000
X116000Y99000
X99000Y109000
X88000Y86000
X109000Y73000
X17000Y99000
X41000Y137000
X62000Y136000
X110000Y143400
X124000Y138000
X145000Y137000
X181000Y154000
X171000Y165000
X160000Y165000
X129000Y163000
X108000Y166000
X67000Y175000
X179000Y184000
X233000Y179000
X264000Y179000
X280000Y227000
X224000Y235000
X195400Y123000
T02
X264492Y201902
X264492Y221587
X401138Y163337
X411138Y163337
X421138Y163337
X431138Y163337
X431138Y153337
X421138Y153337
X411138Y153337
X401138Y153337
T03
X303976Y198098
X303976Y217098
T04
X268654Y90078
X279979Y87287
X288709Y79552
X292846Y68646
X291440Y57067
X284814Y47468
X274485Y42047
X262822Y42047
X252493Y47468
X245867Y57067
X244461Y68646
X248598Y79552
X257328Y87287
X331076Y68646
X332481Y57067
X339107Y47468
X349436Y42047
X361100Y42047
X371428Y47468
X378054Y57067
X379460Y68646
X375324Y79552
X366593Y87287
X355268Y90078
X343943Y87287
X335212Y79552
X457060Y68646
X458466Y57067
X465092Y47468
X475420Y42047
X487084Y42047
X497412Y47468
X504038Y57067
X505444Y68646
X501308Y79552
X492577Y87287
X481252Y90078
X469927Y87287
X461196Y79552
X543674Y68646
X545080Y57067
X551706Y47468
X562034Y42047
X573698Y42047
X584026Y47468
X590652Y57067
X592058Y68646
X587922Y79552
X579191Y87287
X567866Y90078
X556541Y87287
X547810Y79552
X166861Y68646
X165456Y57067
X158830Y47468
X148501Y42047
X136837Y42047
X126509Y47468
X119883Y57067
X118477Y68646
X122613Y79552
X131344Y87287
X142669Y90078
X153994Y87287
X162725Y79552
X80247Y68646
X78841Y57067
X72215Y47468
X61887Y42047
X50223Y42047
X39895Y47468
X33269Y57067
X31863Y68646
X35999Y79552
X44730Y87287
X56055Y90078
X67380Y87287
X76111Y79552
T05
X158201Y195328
X158201Y225328
T06
X307701Y153780
X308165Y139622
X339953Y133622
X369811Y165929
X362283Y192370
T07
X238827Y211919
X198827Y221919
X198827Y201919
T08
X461039Y229378
X478071Y229378
T09
X593000Y221000
X418000Y37000
X205000Y37000
X28000Y221000
M30
